<svg width="802" height="802" viewBox="0 0 802 802" fill="none" xmlns="http://www.w3.org/2000/svg">
<circle cx="401" cy="401" r="401" fill="#0085FF"/>
<path d="M152.586 467.728C151.307 467.728 150.668 466.358 150.668 463.618C150.668 461.791 151.033 459.508 151.764 456.768C152.677 454.211 153.773 451.197 155.052 447.726C156.513 446.447 157.244 444.803 157.244 442.794C157.609 442.977 157.792 442.977 157.792 442.794C157.974 442.429 158.066 442.246 158.066 442.246C158.431 441.698 158.614 441.15 158.614 440.602C158.614 439.871 158.705 439.232 158.888 438.684V438.136C158.157 436.309 157.792 434.757 157.792 433.478L157.244 433.204C156.878 432.108 156.604 430.921 156.422 429.642C156.422 428.363 156.513 427.176 156.696 426.08C156.878 424.984 156.787 424.436 156.422 424.436C156.239 424.253 156.148 423.979 156.148 423.614C156.148 423.249 156.148 422.975 156.148 422.792C156.33 422.427 156.513 421.879 156.696 421.148C156.878 420.783 157.152 420.143 157.518 419.23C158.066 418.134 158.34 417.495 158.34 417.312C158.34 416.947 158.248 416.673 158.066 416.49C157.883 416.125 157.792 415.851 157.792 415.668L158.614 414.572V412.654C158.796 412.289 158.888 411.832 158.888 411.284C159.07 410.919 159.344 410.645 159.71 410.462C160.075 410.097 160.349 409.823 160.532 409.64C160.897 409.275 161.171 408.818 161.354 408.27C161.719 407.539 161.993 406.991 162.176 406.626C162.358 406.261 162.541 405.987 162.724 405.804C163.089 405.439 163.363 404.982 163.546 404.434C163.911 403.886 164.185 403.429 164.368 403.064C164.55 402.516 164.824 401.968 165.19 401.42L167.108 399.776C167.838 399.045 168.569 398.68 169.3 398.68C170.03 398.68 170.487 399.411 170.67 400.872L170.396 402.242L166.012 406.9C165.646 407.265 165.464 407.722 165.464 408.27C165.281 408.453 165.098 408.635 164.916 408.818C164.916 409.001 164.824 409.275 164.642 409.64C164.642 410.005 164.368 410.462 163.82 411.01L162.998 413.476C162.632 413.476 162.45 413.659 162.45 414.024C162.267 414.207 162.084 415.303 161.902 417.312C161.902 419.139 161.902 420.235 161.902 420.6H162.724C162.724 420.783 162.724 421.057 162.724 421.422C162.906 421.605 162.906 421.879 162.724 422.244V423.888C162.724 424.253 162.632 424.619 162.45 424.984C162.45 424.984 162.358 425.075 162.176 425.258C162.176 425.258 162.176 425.349 162.176 425.532C162.176 425.715 162.267 425.989 162.45 426.354C162.632 426.537 162.724 426.811 162.724 427.176C162.724 427.359 162.632 427.541 162.45 427.724C162.45 427.724 162.45 427.815 162.45 427.998C162.45 428.181 162.541 428.363 162.724 428.546C162.906 428.546 162.998 428.637 162.998 428.82V429.094C164.459 426.354 165.829 423.523 167.108 420.6C168.569 417.677 170.03 414.755 171.492 411.832C171.857 411.101 172.222 410.919 172.588 411.284C173.136 411.467 173.501 411.375 173.684 411.01C173.866 410.827 173.958 410.371 173.958 409.64C173.958 409.092 173.866 408.544 173.684 407.996C173.684 407.448 173.958 406.809 174.506 406.078L178.342 399.228C183.639 389.729 188.936 380.596 194.234 371.828C199.714 363.06 204.828 356.301 209.578 351.552L210.4 351.004L211.222 349.634C211.222 349.634 211.404 349.543 211.77 349.36C212.135 349.177 212.409 349.269 212.592 349.634C212.592 349.817 212.409 350.182 212.044 350.73C211.861 351.278 211.77 351.643 211.77 351.826C212.318 352.739 212.957 352.831 213.688 352.1C213.87 351.735 213.87 350.913 213.688 349.634C213.505 348.355 213.505 347.716 213.688 347.716C214.053 347.533 214.236 347.533 214.236 347.716C214.418 347.899 214.601 347.99 214.784 347.99C215.149 347.99 215.332 347.716 215.332 347.168C215.332 346.62 215.423 346.255 215.606 346.072C217.615 345.341 219.442 344.976 221.086 344.976C221.999 344.976 223.278 345.433 224.922 346.346C226.748 347.259 227.662 348.538 227.662 350.182C227.662 351.095 227.205 352.191 226.292 353.47C226.109 353.653 225.926 354.018 225.744 354.566C225.561 354.931 225.287 355.297 224.922 355.662C224.739 355.845 224.556 355.936 224.374 355.936C224.374 355.753 224.191 355.753 223.826 355.936C223.643 356.119 223.369 356.21 223.004 356.21C222.821 356.027 222.547 355.936 222.182 355.936C221.816 355.936 221.725 356.21 221.908 356.758C222.273 357.306 222.364 357.671 222.182 357.854C221.999 358.037 221.816 358.037 221.634 357.854C221.451 357.671 221.177 357.763 220.812 358.128C220.629 358.311 220.72 358.493 221.086 358.676C221.634 358.676 221.725 358.859 221.36 359.224C220.264 360.32 218.894 361.507 217.25 362.786C215.788 363.882 214.327 364.978 212.866 366.074C212.683 366.257 212.5 366.257 212.318 366.074C212.135 365.709 211.952 365.617 211.77 365.8L209.852 368.54C208.025 370.367 206.198 372.285 204.372 374.294C202.545 376.303 200.627 378.587 198.618 381.144C198.07 382.24 197.43 383.245 196.7 384.158C195.969 385.071 194.964 385.437 193.686 385.254C193.686 385.437 193.868 385.711 194.234 386.076C194.599 386.259 194.599 386.624 194.234 387.172C191.128 391.556 188.023 396.123 184.918 400.872C181.812 405.621 178.89 410.553 176.15 415.668C174.871 417.86 173.318 420.691 171.492 424.162L169.026 429.094C168.843 429.642 168.569 429.916 168.204 429.916C168.021 429.733 167.747 429.642 167.382 429.642C167.93 430.738 168.021 431.925 167.656 433.204C167.838 433.204 167.93 433.295 167.93 433.478C171.4 435.853 173.866 437.497 175.328 438.41C176.972 439.323 179.712 440.237 183.548 441.15C185.009 441.515 186.47 441.972 187.932 442.52C189.393 442.885 190.946 443.068 192.59 443.068C192.772 443.068 192.772 443.159 192.59 443.342C192.59 443.525 192.681 443.616 192.864 443.616C193.594 443.616 194.325 443.707 195.056 443.89C195.786 443.89 196.517 443.89 197.248 443.89C197.43 443.89 197.522 443.89 197.522 443.89C197.704 443.707 197.887 443.616 198.07 443.616C198.435 443.616 198.983 443.799 199.714 444.164C200.992 444.164 202.362 444.164 203.824 444.164C205.468 444.164 206.929 444.073 208.208 443.89C209.669 443.707 211.039 443.525 212.318 443.342C213.779 442.977 215.149 442.703 216.428 442.52C218.985 442.337 221.451 441.881 223.826 441.15C226.383 440.237 228.849 439.415 231.224 438.684C233.964 437.771 236.886 436.766 239.992 435.67C243.28 434.391 246.659 432.93 250.13 431.286C250.495 431.103 250.678 431.56 250.678 432.656C250.86 433.569 251.134 433.935 251.5 433.752C251.865 433.569 252.322 432.839 252.87 431.56C253.6 430.281 254.057 429.551 254.24 429.368L256.706 426.08L258.898 423.614C259.263 423.066 259.628 422.335 259.994 421.422C260.359 420.509 260.633 419.778 260.816 419.23C261.364 417.769 261.82 416.216 262.186 414.572C262.551 412.928 262.734 411.193 262.734 409.366C262.734 408.453 263.19 407.996 264.104 407.996C265.017 407.996 265.474 408.453 265.474 409.366C265.474 410.279 265.474 411.284 265.474 412.38C265.474 413.476 265.291 414.481 264.926 415.394C264.926 415.577 264.743 415.668 264.378 415.668C264.195 415.485 264.104 415.485 264.104 415.668C263.921 416.947 263.738 418.317 263.556 419.778C263.373 421.057 262.916 422.335 262.186 423.614L260.542 426.354C264.378 424.345 268.031 422.244 271.502 420.052C275.155 417.677 278.26 415.029 280.818 412.106L283.284 409.366C283.466 409.001 283.74 408.727 284.106 408.544C284.471 408.361 284.745 408.635 284.928 409.366C284.38 409.914 284.288 410.645 284.654 411.558C285.567 411.375 286.115 410.553 286.298 409.092C286.48 407.448 286.754 405.987 287.12 404.708C288.764 402.699 290.408 400.507 292.052 398.132C292.234 397.949 292.508 397.858 292.874 397.858C293.604 397.858 294.244 397.949 294.792 398.132C295.34 398.315 295.888 398.041 296.436 397.31C296.07 396.397 295.705 395.757 295.34 395.392C294.974 394.844 295.066 394.113 295.614 393.2L296.436 391.83C297.349 390.186 298.354 388.999 299.45 388.268C300.546 387.537 301.276 385.985 301.642 383.61C305.112 377.399 306.848 370.641 306.848 363.334C306.848 354.931 304.199 347.168 298.902 340.044C293.787 332.737 285.932 328.171 275.338 326.344C274.972 326.344 273.876 326.07 272.05 325.522C270.406 324.791 269.401 324.426 269.036 324.426C268.67 324.426 268.305 324.426 267.94 324.426C267.574 324.243 267.209 324.152 266.844 324.152C266.113 324.152 265.565 324.243 265.2 324.426C264.834 324.426 264.012 324.243 262.734 323.878C261.09 322.965 258.989 322.417 256.432 322.234C254.057 321.869 252.687 321.595 252.322 321.412L247.39 322.508C246.476 322.508 245.563 322.508 244.65 322.508C243.919 322.325 243.188 322.234 242.458 322.234C238.256 322.234 234.786 322.599 232.046 323.33C229.488 323.878 227.205 324.243 225.196 324.426L213.962 325.522C212.866 324.974 211.861 325.157 210.948 326.07H210.674C209.395 326.07 208.116 326.253 206.838 326.618C205.742 326.801 204.554 327.075 203.276 327.44C202.545 327.623 201.723 327.714 200.81 327.714C200.079 327.714 199.257 327.897 198.344 328.262V328.536C197.613 328.719 196.791 328.901 195.878 329.084C195.147 329.084 194.325 329.267 193.412 329.632H193.138C192.407 329.997 191.676 330.363 190.946 330.728C190.398 331.093 189.667 331.185 188.754 331.002C188.023 331.185 187.201 331.367 186.288 331.55C185.557 331.733 184.735 332.007 183.822 332.372H183.274C182.726 332.372 182.178 331.824 181.63 330.728C181.082 329.632 180.808 328.901 180.808 328.536C180.625 329.632 180.351 330.819 179.986 332.098C179.803 333.377 179.164 334.016 178.068 334.016V334.29C176.789 334.473 175.602 334.838 174.506 335.386C173.41 335.934 172.222 336.391 170.944 336.756C170.213 336.939 169.482 337.03 168.752 337.03C168.021 336.847 167.199 336.756 166.286 336.756C165.92 336.756 165.555 336.847 165.19 337.03C164.824 337.03 164.459 337.121 164.094 337.304C163.546 337.487 163.18 337.852 162.998 338.4C162.998 338.948 162.815 339.405 162.45 339.77C161.719 340.501 160.806 341.049 159.71 341.414C158.614 341.779 157.7 342.145 156.97 342.51C156.604 342.693 156.056 342.51 155.326 341.962C154.778 341.414 154.321 341.323 153.956 341.688C153.773 341.871 153.59 342.327 153.408 343.058C153.408 343.789 153.225 344.245 152.86 344.428H152.586L146.01 347.442C145.096 347.807 144 348.355 142.722 349.086C141.443 349.817 140.347 350.273 139.434 350.456C139.251 350.456 139.16 350.091 139.16 349.36C139.16 348.629 138.977 348.447 138.612 348.812C137.698 349.177 136.694 350.182 135.598 351.826C134.684 353.287 133.771 354.292 132.858 354.84C131.944 355.571 131.031 355.936 130.118 355.936C129.204 355.936 128.382 356.301 127.652 357.032C127.104 357.397 126.556 358.219 126.008 359.498C125.642 360.594 125.186 361.416 124.638 361.964L120.802 367.17C120.436 367.535 120.071 367.901 119.706 368.266C119.34 368.631 119.158 369.088 119.158 369.636C118.062 371.463 117.514 373.563 117.514 375.938C117.514 379.957 118.884 382.879 121.624 384.706C124.546 386.35 127.743 387.629 131.214 388.542H131.488C132.766 389.455 133.954 389.821 135.05 389.638C135.78 389.273 136.42 389.09 136.968 389.09C137.698 389.09 138.338 389.455 138.886 390.186L142.722 391.008C144.731 391.556 145.736 392.104 145.736 392.652C145.736 393.017 145.279 393.383 144.366 393.748C143.635 393.931 142.813 394.022 141.9 394.022C138.794 394.022 134.958 393.383 130.392 392.104C126.008 390.825 122.08 388.816 118.61 386.076C115.139 383.153 113.13 379.591 112.582 375.39C112.582 375.207 112.308 374.751 111.76 374.02C111.394 373.289 111.12 372.65 110.938 372.102C110.755 371.189 110.572 370.367 110.39 369.636C110.39 368.723 110.39 367.901 110.39 367.17C110.39 361.325 112.673 355.936 117.24 351.004C118.153 350.091 118.975 349.451 119.706 349.086C120.436 348.721 121.35 348.173 122.446 347.442C123.359 346.711 123.816 346.163 123.816 345.798C123.816 345.25 124.364 344.611 125.46 343.88C126.921 342.784 128.839 341.688 131.214 340.592C133.588 339.313 135.506 338.309 136.968 337.578V337.304H137.516C138.246 337.304 138.977 336.939 139.708 336.208C142.996 334.564 146.466 333.103 150.12 331.824C153.956 330.363 157.792 328.993 161.628 327.714C162.724 327.166 163.728 326.892 164.642 326.892C165.555 326.892 166.286 327.166 166.834 327.714C166.834 327.349 166.834 327.075 166.834 326.892C166.834 326.527 166.925 326.253 167.108 326.07V325.796C171.309 324.517 175.51 323.239 179.712 321.96C183.913 320.499 188.023 319.768 192.042 319.768H192.316C193.412 319.768 194.234 319.585 194.782 319.22L196.426 318.946H196.7C197.796 319.311 198.8 319.129 199.714 318.398C204.28 317.485 208.664 316.937 212.866 316.754C217.067 316.571 220.629 316.389 223.552 316.206C224.1 316.389 224.648 316.48 225.196 316.48C225.744 316.297 226.2 316.206 226.566 316.206L229.306 315.932C229.854 315.932 230.402 316.023 230.95 316.206C231.68 316.206 232.32 316.115 232.868 315.932L248.212 315.658H248.486C249.034 315.658 249.49 315.932 249.856 316.48C250.404 316.845 250.952 316.663 251.5 315.932C252.961 315.932 255.153 316.206 258.076 316.754C261.181 317.302 264.286 317.85 267.392 318.398C270.497 318.763 272.78 319.129 274.242 319.494C276.982 320.042 280.818 321.321 285.75 323.33C290.864 325.157 295.979 327.988 301.094 331.824C306.208 335.477 310.318 340.409 313.424 346.62C316.712 352.648 317.899 360.229 316.986 369.362C316.803 372.65 316.072 375.755 314.794 378.678C313.515 381.601 312.145 384.615 310.684 387.72L307.944 393.748C307.761 393.931 307.487 394.205 307.122 394.57C306.756 394.753 306.391 395.027 306.026 395.392C305.843 395.94 305.569 396.397 305.204 396.762C304.838 396.945 304.473 397.31 304.108 397.858C303.377 398.954 302.555 400.05 301.642 401.146C300.728 402.059 299.815 403.155 298.902 404.434L298.354 405.256C295.796 409.275 292.6 412.928 288.764 416.216C284.928 419.321 281.092 422.153 277.256 424.71V424.984C276.89 425.167 276.434 425.441 275.886 425.806C275.52 425.989 275.155 426.263 274.79 426.628L274.516 426.902H274.242C273.876 427.085 273.42 427.267 272.872 427.45C272.324 427.633 271.867 428.089 271.502 428.82C270.771 429.368 270.04 429.642 269.31 429.642C266.935 430.921 264.743 432.017 262.734 432.93C260.724 433.661 258.989 434.391 257.528 435.122C257.528 435.487 257.254 436.035 256.706 436.766C256.158 437.497 255.701 438.045 255.336 438.41C252.23 440.967 250.13 443.068 249.034 444.712C247.938 446.356 246.568 447.635 244.924 448.548C244.741 448.731 244.467 448.822 244.102 448.822C243.371 448.822 242.823 449.096 242.458 449.644C242.092 450.192 241.727 450.74 241.362 451.288C240.448 452.201 238.622 453.115 235.882 454.028C233.324 454.941 231.406 455.855 230.128 456.768C229.58 456.951 228.94 457.133 228.21 457.316C227.662 457.681 227.388 457.864 227.388 457.864H226.018C225.835 457.864 225.47 458.047 224.922 458.412C224.374 458.96 223.917 459.325 223.552 459.508C223.186 459.691 222.821 459.782 222.456 459.782C222.09 459.782 221.816 459.965 221.634 460.33C220.72 460.33 219.716 460.513 218.62 460.878C218.437 460.878 217.524 460.878 215.88 460.878C214.236 461.061 213.231 461.243 212.866 461.426C212.683 461.609 212.044 461.883 210.948 462.248C209.852 462.613 209.121 462.796 208.756 462.796C208.573 462.796 208.39 462.705 208.208 462.522C208.025 462.522 207.751 462.613 207.386 462.796C207.203 463.161 206.929 463.344 206.564 463.344C206.381 463.344 206.016 463.253 205.468 463.07C205.102 463.07 204.737 463.07 204.372 463.07C204.189 462.887 203.824 462.979 203.276 463.344C202.91 463.709 202.545 463.892 202.18 463.892C201.997 463.892 201.814 463.801 201.632 463.618C201.632 463.618 201.54 463.618 201.358 463.618C200.992 463.618 200.627 463.709 200.262 463.892C199.896 464.075 199.531 464.166 199.166 464.166C197.887 464.166 196.7 464.075 195.604 463.892C194.508 463.709 193.412 463.618 192.316 463.618C192.133 463.618 191.585 463.344 190.672 462.796C189.941 462.248 189.484 461.974 189.302 461.974C188.023 461.974 186.744 461.883 185.466 461.7C184.37 461.7 183.274 461.609 182.178 461.426C181.995 461.426 181.812 461.243 181.63 460.878C181.63 460.695 181.447 460.604 181.082 460.604H180.534C180.351 460.604 179.894 460.421 179.164 460.056C178.616 459.691 178.25 459.417 178.068 459.234L177.794 458.96C177.063 458.777 176.606 458.503 176.424 458.138C176.424 457.773 176.241 457.59 175.876 457.59C175.693 457.59 175.602 457.59 175.602 457.59C175.602 457.773 175.51 457.864 175.328 457.864C174.962 457.864 174.78 457.681 174.78 457.316C174.232 456.951 173.318 456.494 172.04 455.946C170.944 455.398 170.213 454.759 169.848 454.028C169.117 453.845 168.66 453.663 168.478 453.48C168.478 453.297 168.295 452.932 167.93 452.384L166.834 451.836L164.094 449.37C164.094 448.822 164.002 448.548 163.82 448.548L162.998 448C162.998 447.269 162.724 446.904 162.176 446.904C161.81 445.808 161.628 445.26 161.628 445.26C159.984 448.913 158.522 452.475 157.244 455.946C156.148 459.417 155.143 462.613 154.23 465.536C153.864 466.997 153.316 467.728 152.586 467.728ZM200.536 459.508C200.901 459.508 201.175 459.417 201.358 459.234C201.723 459.051 201.997 458.869 202.18 458.686H203.276C204.554 457.955 205.194 457.955 205.194 458.686C205.194 459.417 205.65 459.417 206.564 458.686H207.934C208.116 458.138 208.39 457.864 208.756 457.864C209.304 457.864 209.669 457.773 209.852 457.59C210.217 457.59 210.4 457.407 210.4 457.042C210.582 456.859 210.948 456.768 211.496 456.768C211.678 456.768 211.952 456.951 212.318 457.316C213.048 457.316 214.51 456.951 216.702 456.22C219.076 455.489 220.355 455.124 220.538 455.124C220.72 455.307 220.994 455.124 221.36 454.576C221.908 454.028 222.273 453.845 222.456 454.028C222.456 453.845 222.73 453.663 223.278 453.48C223.826 453.48 224.191 453.389 224.374 453.206C225.47 452.658 226.383 452.384 227.114 452.384C227.296 452.201 227.753 451.836 228.484 451.288C229.397 450.923 229.854 450.649 229.854 450.466C230.219 450.101 230.767 449.827 231.498 449.644C232.228 449.461 232.685 449.279 232.868 449.096C233.416 449.096 235.242 448.183 238.348 446.356C241.636 444.347 244.65 441.972 247.39 439.232C244.284 440.328 241.27 441.241 238.348 441.972C235.608 442.52 234.146 442.794 233.964 442.794C233.598 443.159 233.324 443.342 233.142 443.342C232.411 442.977 232.046 442.794 232.046 442.794L231.772 443.068C231.589 443.068 231.406 443.159 231.224 443.342C231.041 443.525 230.676 443.616 230.128 443.616C229.945 443.433 229.397 443.616 228.484 444.164C227.753 444.529 227.296 444.712 227.114 444.712C226.931 444.712 226.657 444.803 226.292 444.986C226.109 444.986 225.835 444.895 225.47 444.712C224.739 445.443 222.821 445.991 219.716 446.356C216.793 446.539 214.875 446.63 213.962 446.63H213.688C213.505 446.447 213.231 446.447 212.866 446.63C212.683 446.63 212.409 446.63 212.044 446.63C212.044 446.813 211.952 446.995 211.77 447.178H210.126C209.395 447.178 208.664 447.269 207.934 447.452C207.386 447.635 206.746 447.726 206.016 447.726L205.742 447.452C205.559 447.452 205.285 447.543 204.92 447.726C204.554 447.909 204.28 448 204.098 448C203.915 448 203.732 447.909 203.55 447.726C203.55 447.361 203.367 447.178 203.002 447.178C202.819 447.178 202.545 447.361 202.18 447.726C201.997 447.909 201.814 447.909 201.632 447.726H200.536C199.988 447.726 199.714 447.726 199.714 447.726C199.531 447.726 199.348 447.817 199.166 448C199.166 448 199.074 448 198.892 448C198.892 448 198.709 447.817 198.344 447.452C198.161 447.452 197.796 447.635 197.248 448C196.882 448.183 196.517 448.183 196.152 448H195.604C195.238 447.635 195.056 447.452 195.056 447.452C194.873 447.452 194.782 447.543 194.782 447.726H192.316C191.22 447.726 190.124 447.361 189.028 446.63C187.932 445.899 186.927 445.534 186.014 445.534C185.831 445.534 185.648 445.625 185.466 445.808C185.466 445.808 185.374 445.808 185.192 445.808C185.009 445.808 184.826 445.808 184.644 445.808C184.644 445.625 184.552 445.534 184.37 445.534C184.37 445.534 184.278 445.534 184.096 445.534C184.096 445.534 184.004 445.625 183.822 445.808C183.822 445.625 183.73 445.534 183.548 445.534C183.548 445.351 183.548 445.26 183.548 445.26L181.082 444.712C181.082 444.164 180.899 443.89 180.534 443.89C180.351 443.342 179.164 442.794 176.972 442.246C174.78 441.698 173.501 441.333 173.136 441.15C172.953 441.15 172.588 440.967 172.04 440.602C171.674 440.237 171.492 440.145 171.492 440.328H171.218C170.67 440.328 169.939 439.963 169.026 439.232C168.295 438.319 167.564 437.771 166.834 437.588C166.286 437.04 166.012 436.492 166.012 435.944H165.738L165.464 436.218L164.916 437.862C164.916 438.045 165.007 438.41 165.19 438.958C165.372 439.506 165.372 439.963 165.19 440.328C165.555 440.693 165.738 441.15 165.738 441.698C165.738 442.063 165.92 442.337 166.286 442.52C166.468 443.068 166.651 443.616 166.834 444.164C167.199 444.712 167.473 445.26 167.656 445.808C167.656 445.991 168.112 446.356 169.026 446.904C169.939 447.269 170.396 447.635 170.396 448C170.578 448.183 170.761 448.365 170.944 448.548C171.309 448.731 171.492 449.005 171.492 449.37C171.674 449.553 171.857 449.827 172.04 450.192C172.222 450.557 172.314 450.923 172.314 451.288C172.679 451.288 172.953 451.379 173.136 451.562C173.318 451.927 173.775 452.475 174.506 453.206C175.236 454.119 175.784 454.667 176.15 454.85C176.332 454.85 176.424 454.759 176.424 454.576C176.424 454.576 176.515 454.576 176.698 454.576C177.063 454.759 177.52 455.124 178.068 455.672C178.616 456.403 178.981 456.768 179.164 456.768C179.529 456.768 179.712 456.768 179.712 456.768C181.173 456.951 182.634 457.133 184.096 457.316C185.557 457.681 187.018 457.955 188.48 458.138C188.662 458.138 188.936 458.229 189.302 458.412C189.667 458.777 190.124 458.96 190.672 458.96C192.133 459.143 193.868 459.234 195.878 459.234C198.07 459.234 199.531 459.234 200.262 459.234L200.536 459.508ZM317.57 500.06C317.387 500.06 317.296 499.969 317.296 499.786C317.479 499.603 317.479 499.421 317.296 499.238C317.296 499.238 317.205 499.238 317.022 499.238C317.022 499.421 317.022 499.603 317.022 499.786C316.291 499.421 315.378 499.147 314.282 498.964C313.369 498.781 312.455 498.325 311.542 497.594L307.432 493.484C307.067 493.119 306.793 492.571 306.61 491.84C306.427 491.109 306.062 490.561 305.514 490.196L304.692 483.346C304.692 482.981 304.601 482.524 304.418 481.976C304.053 481.611 303.87 481.245 303.87 480.88C303.87 480.515 304.053 479.967 304.418 479.236C304.601 478.505 304.783 477.775 304.966 477.044C304.966 476.861 304.783 476.405 304.418 475.674C304.601 475.126 304.966 474.578 305.514 474.03C306.062 473.665 306.427 473.208 306.61 472.66C306.793 472.295 306.884 471.929 306.884 471.564C306.701 471.381 306.61 471.107 306.61 470.742C306.61 470.011 306.975 469.281 307.706 468.55C308.437 468.002 309.076 467.363 309.624 466.632C310.172 465.901 310.446 465.171 310.446 464.44C311.177 463.527 311.907 462.613 312.638 461.7C313.551 460.787 314.373 459.873 315.104 458.96C315.287 458.595 315.378 457.864 315.378 456.768L315.926 455.946C316.291 455.581 316.748 455.307 317.296 455.124C317.844 455.124 318.209 454.941 318.392 454.576C318.757 454.211 319.031 453.845 319.214 453.48C319.579 453.115 319.945 452.841 320.31 452.658L321.132 452.932C321.497 452.019 321.954 451.379 322.502 451.014C323.05 450.649 323.689 450.192 324.42 449.644L325.242 448C325.425 447.817 325.699 447.726 326.064 447.726C326.612 447.726 327.069 447.635 327.434 447.452C327.799 446.356 328.439 445.534 329.352 444.986C330.265 444.438 330.813 443.433 330.996 441.972C331.361 441.972 331.818 441.881 332.366 441.698C333.097 441.515 333.553 441.424 333.736 441.424C334.101 441.424 334.193 441.424 334.01 441.424C334.01 441.241 334.01 441.059 334.01 440.876L334.558 441.698H335.38C335.745 441.515 335.837 441.241 335.654 440.876C335.654 440.511 335.654 440.237 335.654 440.054C336.019 439.689 336.567 439.323 337.298 438.958C338.029 438.593 338.303 438.045 338.12 437.314C337.937 436.949 337.663 436.766 337.298 436.766C336.933 436.583 336.659 436.401 336.476 436.218C336.293 435.853 336.019 435.487 335.654 435.122C335.289 434.574 334.923 434.209 334.558 434.026C334.558 433.478 334.467 433.113 334.284 432.93L332.64 432.108C331.909 430.647 330.996 429.368 329.9 428.272C328.804 426.993 327.891 425.806 327.16 424.71C326.977 424.162 326.886 423.431 326.886 422.518C326.886 421.422 326.429 420.783 325.516 420.6C324.785 418.408 324.42 416.764 324.42 415.668C324.42 414.389 324.603 412.654 324.968 410.462C324.968 410.097 324.877 409.914 324.694 409.914C324.511 409.731 324.42 409.549 324.42 409.366L325.79 405.804V404.16C325.79 403.247 325.973 402.425 326.338 401.694C326.886 400.781 327.525 399.867 328.256 398.954C328.073 398.771 327.891 398.589 327.708 398.406C327.525 398.041 327.16 397.858 326.612 397.858C326.247 397.858 326.064 397.949 326.064 398.132C326.247 398.132 326.155 398.132 325.79 398.132H325.516C324.968 398.132 323.872 397.949 322.228 397.584C320.767 397.219 319.579 396.945 318.666 396.762C318.483 396.031 317.661 395.301 316.2 394.57H315.652L315.104 394.022C315.287 393.657 315.469 393.291 315.652 392.926C315.835 392.561 315.926 392.287 315.926 392.104C316.109 392.104 316.931 392.469 318.392 393.2C320.036 393.748 321.771 394.387 323.598 395.118C325.425 395.666 326.521 395.94 326.886 395.94C327.251 395.94 327.525 395.94 327.708 395.94C328.073 395.757 328.347 395.666 328.53 395.666L340.312 377.582C341.225 377.217 342.139 376.76 343.052 376.212C343.965 375.664 344.696 375.025 345.244 374.294C345.975 373.198 347.071 372.102 348.532 371.006C349.993 369.727 351.181 368.814 352.094 368.266C352.642 367.901 353.099 367.444 353.464 366.896C354.012 366.348 354.56 365.891 355.108 365.526C355.473 365.343 356.021 365.069 356.752 364.704C357.665 364.339 358.305 364.065 358.67 363.882C359.035 363.517 359.401 363.06 359.766 362.512C360.314 361.781 360.862 361.325 361.41 361.142C361.775 360.959 362.323 360.777 363.054 360.594C363.785 360.411 364.424 360.229 364.972 360.046C365.337 359.681 365.794 359.224 366.342 358.676C366.89 357.945 367.255 357.58 367.438 357.58C367.803 357.58 367.895 357.671 367.712 357.854C367.529 357.854 367.621 357.854 367.986 357.854C368.351 357.854 369.082 357.397 370.178 356.484C371.457 355.571 372.461 355.023 373.192 354.84C375.384 353.927 378.033 353.196 381.138 352.648C384.243 352.1 385.887 351.826 386.07 351.826H388.81C389.175 351.826 389.906 351.826 391.002 351.826C392.281 351.826 393.468 351.735 394.564 351.552C394.929 351.917 395.386 352.191 395.934 352.374C396.482 352.374 396.939 352.557 397.304 352.922C397.304 353.105 397.395 353.287 397.578 353.47C397.761 353.653 397.943 353.927 398.126 354.292C398.491 354.292 399.131 354.566 400.044 355.114C400.957 355.479 401.505 355.662 401.688 355.662C401.688 356.393 402.236 357.032 403.332 357.58C403.515 358.128 403.697 358.676 403.88 359.224C404.245 359.772 404.428 360.229 404.428 360.594C404.428 361.873 403.88 364.065 402.784 367.17C402.784 367.901 403.058 368.357 403.606 368.54C403.423 368.723 403.332 368.997 403.332 369.362C403.332 369.545 403.241 369.727 403.058 369.91C402.327 369.91 401.597 370.275 400.866 371.006C400.318 371.189 399.953 371.554 399.77 372.102C399.587 372.467 399.313 372.833 398.948 373.198C398.948 373.563 399.131 374.111 399.496 374.842C398.583 375.025 398.126 375.481 398.126 376.212C398.126 376.76 397.943 377.308 397.578 377.856C396.665 377.856 396.117 378.039 395.934 378.404C394.655 379.5 392.829 380.961 390.454 382.788C388.079 384.432 386.161 385.711 384.7 386.624C383.969 386.989 383.604 387.72 383.604 388.816C382.691 388.816 381.869 389.364 381.138 390.46C380.955 390.46 380.681 390.369 380.316 390.186C380.133 390.003 379.859 389.912 379.494 389.912C379.311 389.912 378.581 390.277 377.302 391.008C376.023 391.739 374.836 392.287 373.74 392.652L373.192 393.2C372.827 393.2 372.461 393.383 372.096 393.748C371.731 393.931 371.365 394.205 371 394.57C371 394.205 370.909 394.022 370.726 394.022C369.447 394.022 368.077 394.205 366.616 394.57C366.433 394.753 366.159 394.935 365.794 395.118C365.611 395.301 365.337 395.392 364.972 395.392C364.789 395.575 364.607 395.575 364.424 395.392C364.241 395.209 363.967 395.209 363.602 395.392C363.419 395.392 363.054 395.666 362.506 396.214C361.958 396.579 361.501 396.853 361.136 397.036C360.953 397.036 360.771 397.036 360.588 397.036C360.405 396.853 360.131 396.762 359.766 396.762C358.67 396.762 357.939 397.127 357.574 397.858C357.209 398.406 356.843 398.68 356.478 398.68C356.295 398.68 356.021 398.771 355.656 398.954C355.473 399.137 355.199 399.228 354.834 399.228C354.469 399.411 354.286 399.411 354.286 399.228C354.469 398.863 354.377 398.771 354.012 398.954C353.647 398.954 353.555 399.045 353.738 399.228C353.921 399.228 353.829 399.228 353.464 399.228C353.099 399.228 352.825 399.137 352.642 398.954C352.642 398.771 352.551 398.589 352.368 398.406C350.541 398.041 348.897 397.858 347.436 397.858C346.888 397.858 346.249 398.041 345.518 398.406C345.335 398.589 345.335 398.771 345.518 398.954C345.701 398.954 345.701 398.954 345.518 398.954C344.97 399.137 344.331 399.411 343.6 399.776C343.052 399.959 342.504 400.233 341.956 400.598C341.773 400.233 341.499 399.867 341.134 399.502C340.951 399.137 340.495 398.954 339.764 398.954C339.216 399.137 338.851 399.776 338.668 400.872C338.485 401.968 338.394 402.79 338.394 403.338C338.394 404.251 338.303 404.891 338.12 405.256L335.654 409.366C335.471 410.279 335.106 411.467 334.558 412.928C334.01 414.389 333.736 415.303 333.736 415.668L334.558 417.312V418.134C334.558 419.413 334.832 420.6 335.38 421.696V424.162C335.38 424.162 335.289 424.162 335.106 424.162C335.106 423.979 335.106 424.071 335.106 424.436C335.106 424.984 335.563 425.715 336.476 426.628V427.176C336.476 428.455 336.841 429.459 337.572 430.19C338.303 430.921 339.033 431.834 339.764 432.93C340.677 433.843 341.317 434.3 341.682 434.3H342.504C342.869 434.3 343.6 433.843 344.696 432.93C345.792 431.834 346.705 431.012 347.436 430.464C347.619 430.281 347.71 429.916 347.71 429.368L350.176 428.546C350.724 428.181 351.181 427.815 351.546 427.45C351.911 427.085 352.368 426.719 352.916 426.354C354.743 424.893 356.569 423.797 358.396 423.066C360.223 422.335 362.049 421.422 363.876 420.326C364.241 419.961 364.607 419.413 364.972 418.682C365.337 417.951 365.794 417.495 366.342 417.312C367.073 416.947 367.712 416.581 368.26 416.216C368.808 415.851 369.265 415.577 369.63 415.394C370.543 414.846 371.548 414.572 372.644 414.572C373.009 413.841 373.557 413.293 374.288 412.928C375.201 412.38 376.115 411.923 377.028 411.558C378.124 411.193 379.037 410.736 379.768 410.188C380.133 410.005 380.499 409.64 380.864 409.092C381.229 408.544 381.503 408.27 381.686 408.27C382.051 408.27 382.325 408.361 382.508 408.544C382.873 408.544 383.239 408.453 383.604 408.27C383.969 408.27 384.426 408.087 384.974 407.722C385.705 407.174 386.253 406.809 386.618 406.626L388.262 406.078C388.627 405.895 388.901 405.621 389.084 405.256C389.449 404.891 389.815 404.617 390.18 404.434C390.545 404.069 391.093 403.795 391.824 403.612C392.737 403.429 393.468 403.247 394.016 403.064C394.199 402.881 394.29 402.425 394.29 401.694C395.021 401.329 395.843 400.781 396.756 400.05C397.669 399.319 398.309 398.589 398.674 397.858C398.857 397.675 399.131 397.401 399.496 397.036C399.861 396.671 400.227 396.488 400.592 396.488C400.957 396.488 401.049 396.579 400.866 396.762C400.683 396.762 400.775 396.762 401.14 396.762C401.505 396.579 401.779 396.305 401.962 395.94C402.327 395.575 402.601 395.301 402.784 395.118C403.88 394.753 404.976 394.57 406.072 394.57C406.62 394.022 406.894 393.657 406.894 393.474C407.442 393.109 408.081 392.835 408.812 392.652C409.543 392.469 410.273 392.195 411.004 391.83C411.187 391.83 411.369 391.647 411.552 391.282C411.735 390.917 411.917 390.734 412.1 390.734C412.831 390.369 413.561 390.095 414.292 389.912C415.023 389.729 415.753 389.547 416.484 389.364C416.849 389.181 417.123 388.907 417.306 388.542C417.671 387.994 417.945 387.537 418.128 387.172C418.311 386.989 418.767 386.898 419.498 386.898L420.046 386.35C421.873 385.619 422.969 384.98 423.334 384.432C423.882 383.884 424.704 383.245 425.8 382.514C426.348 382.149 427.17 381.783 428.266 381.418C429.545 380.87 430.549 380.231 431.28 379.5C431.28 379.317 431.189 379.135 431.006 378.952C430.458 379.135 429.636 379.135 428.54 378.952C428.54 378.587 428.449 378.313 428.266 378.13C428.449 378.13 428.631 378.039 428.814 377.856C428.997 377.491 429.179 377.217 429.362 377.034C429.362 377.217 429.545 377.491 429.91 377.856C430.275 377.491 430.458 377.125 430.458 376.76C431.189 376.943 431.828 377.125 432.376 377.308C433.107 377.308 433.655 377.308 434.02 377.308C434.385 377.308 434.659 377.125 434.842 376.76C435.207 376.212 435.573 375.847 435.938 375.664C436.303 375.299 436.851 375.025 437.582 374.842C438.313 374.659 439.043 374.385 439.774 374.02C440.322 373.655 440.779 373.289 441.144 372.924C441.509 372.376 441.875 371.828 442.24 371.28C442.605 370.915 442.879 370.823 443.062 371.006C443.427 371.006 443.701 370.915 443.884 370.732C445.711 369.453 447.446 368.175 449.09 366.896C450.917 365.435 452.743 363.791 454.57 361.964L455.118 361.416C455.118 361.416 455.575 361.416 456.488 361.416C456.853 361.233 457.127 361.051 457.31 360.868C457.675 360.503 457.949 360.229 458.132 360.046C458.132 359.681 458.041 359.407 457.858 359.224C458.406 359.224 458.771 359.315 458.954 359.498C459.319 359.133 459.685 358.585 460.05 357.854C460.598 356.941 461.055 356.301 461.42 355.936C461.968 355.205 462.973 354.475 464.434 353.744C465.895 352.831 466.261 351.826 465.53 350.73C466.078 350.547 466.626 350.273 467.174 349.908C467.905 349.543 468.635 349.177 469.366 348.812C469.731 348.081 470.188 347.442 470.736 346.894C471.467 346.163 472.015 345.433 472.38 344.702C472.928 343.606 473.385 342.236 473.75 340.592C474.115 338.948 474.298 338.035 474.298 337.852C474.298 337.487 474.115 337.213 473.75 337.03C473.567 336.847 473.476 336.665 473.476 336.482C473.293 336.117 473.202 335.66 473.202 335.112C473.385 334.564 473.293 334.199 472.928 334.016C472.745 333.651 472.38 333.285 471.832 332.92C471.284 332.555 470.827 332.281 470.462 332.098V330.18C470.645 330.18 470.827 330.18 471.01 330.18C471.375 329.997 471.649 329.906 471.832 329.906C472.197 329.906 472.563 329.997 472.928 330.18C473.476 330.363 473.933 330.454 474.298 330.454C474.298 330.819 474.389 331.185 474.572 331.55C474.755 331.733 474.937 332.007 475.12 332.372C475.12 332.555 475.029 332.737 474.846 332.92C474.846 332.92 474.846 333.011 474.846 333.194C475.211 333.925 475.577 335.021 475.942 336.482C476.307 337.761 476.581 338.583 476.764 338.948C476.764 338.948 476.673 339.039 476.49 339.222C476.307 339.222 476.307 339.679 476.49 340.592L475.942 342.236C475.394 342.784 475.029 343.423 474.846 344.154C474.846 344.702 474.755 345.433 474.572 346.346V347.442C474.389 348.173 473.933 348.721 473.202 349.086C472.471 349.451 472.197 350.091 472.38 351.004C471.649 351.004 470.919 351.369 470.188 352.1V352.648C470.188 354.292 469.731 355.571 468.818 356.484H467.996C467.631 356.484 467.083 356.301 466.352 355.936V357.032C466.352 357.763 465.987 358.219 465.256 358.402C464.708 358.585 464.16 358.859 463.612 359.224C463.612 358.859 463.521 358.585 463.338 358.402C463.155 358.585 463.064 358.676 463.064 358.676C463.064 358.676 462.973 358.767 462.79 358.95L463.064 360.046C463.064 360.046 462.973 360.046 462.79 360.046C462.607 360.046 462.425 359.955 462.242 359.772C462.059 359.955 461.968 360.32 461.968 360.868C461.42 360.868 461.055 360.959 460.872 361.142C460.507 361.69 459.685 362.603 458.406 363.882C457.31 365.161 456.397 365.983 455.666 366.348C455.118 366.531 454.479 366.987 453.748 367.718C453.2 368.266 452.743 368.54 452.378 368.54C452.195 368.723 452.104 368.723 452.104 368.54C452.287 368.357 452.195 368.357 451.83 368.54C451.647 368.54 451.099 368.723 450.186 369.088C449.455 369.453 448.816 369.819 448.268 370.184L447.72 371.28L444.706 372.65C443.975 373.015 443.336 373.381 442.788 373.746C442.423 374.111 442.057 374.477 441.692 374.842V375.116C441.692 376.029 441.235 376.577 440.322 376.76C439.591 376.76 438.952 376.943 438.404 377.308C438.587 377.491 438.952 377.673 439.5 377.856C440.048 378.039 440.413 378.313 440.596 378.678C440.779 378.861 440.961 379.135 441.144 379.5C441.327 379.865 441.509 380.231 441.692 380.596C442.057 380.961 442.423 381.327 442.788 381.692C443.336 382.057 443.701 382.423 443.884 382.788L445.254 385.528C445.254 385.893 445.437 386.441 445.802 387.172C445.071 388.999 445.254 390.277 446.35 391.008C446.715 391.739 446.898 392.378 446.898 392.926C446.898 393.109 446.807 393.383 446.624 393.748C446.441 394.113 446.35 394.479 446.35 394.844C446.167 395.392 445.985 396.123 445.802 397.036C445.802 397.949 445.619 398.863 445.254 399.776C445.254 399.776 445.071 399.959 444.706 400.324C443.975 402.151 442.971 403.886 441.692 405.53C440.596 407.174 439.409 408.544 438.13 409.64C437.582 410.188 436.851 411.01 435.938 412.106C435.025 413.202 434.568 413.75 434.568 413.75L431.006 418.134C431.006 417.951 430.823 417.86 430.458 417.86C430.275 417.86 429.727 418.225 428.814 418.956C428.083 419.504 427.353 419.961 426.622 420.326C426.257 420.326 426.074 420.6 426.074 421.148L420.32 424.436C420.137 424.619 419.772 424.984 419.224 425.532C418.859 425.897 418.493 426.08 418.128 426.08C417.945 426.08 417.763 426.08 417.58 426.08C417.58 425.897 417.58 425.806 417.58 425.806L405.798 432.108C405.798 432.108 405.067 432.473 403.606 433.204C402.145 433.935 400.683 434.665 399.222 435.396C397.761 435.944 396.847 436.218 396.482 436.218C396.299 436.218 396.208 436.218 396.208 436.218C396.208 436.035 396.025 435.944 395.66 435.944C395.295 435.944 394.381 436.309 392.92 437.04C391.641 437.771 390.819 438.227 390.454 438.41C390.089 438.41 389.906 438.319 389.906 438.136C390.089 437.953 389.997 437.953 389.632 438.136H389.358C388.81 438.684 388.445 438.958 388.262 438.958C387.714 439.141 386.892 439.506 385.796 440.054C384.883 440.419 384.243 440.602 383.878 440.602C383.513 440.785 383.33 440.785 383.33 440.602C383.33 440.419 383.147 440.419 382.782 440.602C382.599 440.602 382.143 440.785 381.412 441.15C380.864 441.333 380.316 441.607 379.768 441.972H379.22C379.037 441.972 378.763 442.063 378.398 442.246C378.215 442.429 377.941 442.52 377.576 442.52C377.211 442.52 376.937 442.52 376.754 442.52C376.571 442.337 376.297 442.337 375.932 442.52C375.749 442.52 375.201 442.794 374.288 443.342C373.375 443.707 372.553 444.073 371.822 444.438C371.457 444.073 371 443.799 370.452 443.616C369.904 443.251 369.356 443.068 368.808 443.068H365.52C365.155 443.068 364.881 443.251 364.698 443.616C364.698 443.981 364.515 444.164 364.15 444.164H358.396L353.738 443.89C353.738 443.525 353.464 443.251 352.916 443.068C352.551 442.703 352.185 442.611 351.82 442.794C351.455 442.794 351.272 442.885 351.272 443.068C351.455 443.068 351.363 443.068 350.998 443.068C350.633 443.068 350.176 442.794 349.628 442.246C349.08 441.698 348.623 441.333 348.258 441.15L347.71 441.698C347.527 441.698 347.162 441.698 346.614 441.698C346.066 441.698 345.609 441.607 345.244 441.424C345.061 441.059 344.696 440.693 344.148 440.328C343.783 439.963 343.417 439.78 343.052 439.78C342.687 439.963 342.23 440.328 341.682 440.876C341.317 441.424 340.951 441.881 340.586 442.246L335.654 445.808C335.471 445.991 335.38 446.356 335.38 446.904C334.649 447.087 333.736 447.635 332.64 448.548C331.544 449.461 330.357 450.375 329.078 451.288C328.895 451.288 328.895 451.288 329.078 451.288C329.261 451.471 329.261 451.653 329.078 451.836C328.347 452.567 327.343 453.571 326.064 454.85C324.785 456.129 323.689 457.499 322.776 458.96C320.584 462.065 318.483 464.805 316.474 467.18C314.647 469.737 313.003 472.843 311.542 476.496C310.811 478.505 310.263 480.332 309.898 481.976C309.533 483.803 309.441 485.447 309.624 486.908C309.624 487.091 309.624 487.456 309.624 488.004C309.624 488.552 309.715 489.009 309.898 489.374C310.629 491.018 311.177 492.479 311.542 493.758C312.09 495.037 313.277 496.133 315.104 497.046C315.469 497.229 315.926 497.229 316.474 497.046C317.022 497.046 317.661 497.046 318.392 497.046C318.757 497.046 319.214 497.137 319.762 497.32C320.493 497.685 321.132 497.868 321.68 497.868C321.68 498.599 321.863 499.147 322.228 499.512C321.497 499.512 320.584 499.603 319.488 499.786C318.575 499.969 317.935 500.06 317.57 500.06ZM342.504 395.666C343.6 395.666 344.879 395.575 346.34 395.392C347.984 395.209 348.897 395.118 349.08 395.118C349.445 395.118 350.359 394.935 351.82 394.57C353.281 394.022 354.286 393.657 354.834 393.474C355.93 393.109 357.117 392.926 358.396 392.926C359.675 392.926 360.862 392.835 361.958 392.652C362.506 392.469 363.145 392.195 363.876 391.83C364.789 391.465 365.337 391.282 365.52 391.282C365.885 391.282 366.068 391.282 366.068 391.282C366.251 391.099 366.433 390.917 366.616 390.734C366.981 390.734 367.438 390.551 367.986 390.186C368.717 389.821 369.173 389.638 369.356 389.638C369.721 389.455 369.904 389.455 369.904 389.638C369.904 389.821 369.995 389.821 370.178 389.638C370.543 389.638 371.457 389.181 372.918 388.268C374.379 387.355 375.841 386.441 377.302 385.528C378.763 384.615 379.585 384.158 379.768 384.158C380.133 384.158 380.681 384.067 381.412 383.884C382.143 383.519 382.782 383.336 383.33 383.336C383.147 382.788 383.056 382.423 383.056 382.24C383.239 382.057 383.421 381.875 383.604 381.692L384.152 382.24C384.152 381.875 384.335 381.509 384.7 381.144C385.065 381.144 385.339 381.144 385.522 381.144C385.887 380.961 386.07 380.87 386.07 380.87C388.079 379.409 389.358 378.313 389.906 377.582C390.454 376.851 391.093 376.121 391.824 375.39C392.007 375.025 392.098 374.659 392.098 374.294C392.098 373.929 392.189 373.655 392.372 373.472C392.737 372.741 393.194 372.193 393.742 371.828C394.29 371.28 394.655 370.823 394.838 370.458C395.203 370.093 395.295 369.819 395.112 369.636C395.112 369.271 395.203 368.997 395.386 368.814C395.386 368.814 395.386 368.723 395.386 368.54C395.386 368.357 395.295 368.175 395.112 367.992C395.295 367.444 395.386 366.805 395.386 366.074C395.569 365.343 395.751 364.795 395.934 364.43C395.203 364.43 394.838 364.156 394.838 363.608C394.838 363.425 394.838 363.334 394.838 363.334C395.021 363.151 395.112 362.969 395.112 362.786L394.29 361.69C393.925 361.325 393.285 360.868 392.372 360.32C391.641 359.589 391.093 359.224 390.728 359.224L387.988 359.772C387.805 359.772 387.714 359.863 387.714 360.046C387.714 360.229 387.531 360.411 387.166 360.594C386.983 360.594 386.709 360.594 386.344 360.594C386.161 360.411 385.887 360.32 385.522 360.32C385.157 360.32 385.065 360.411 385.248 360.594C385.613 360.777 385.613 360.868 385.248 360.868C384.517 360.868 383.969 361.142 383.604 361.69L382.782 361.142C382.051 361.325 381.229 361.507 380.316 361.69C379.403 361.873 378.672 362.147 378.124 362.512C377.941 362.695 377.667 363.06 377.302 363.608C377.119 364.156 376.845 364.43 376.48 364.43C376.115 364.43 376.023 364.339 376.206 364.156C376.389 363.791 376.297 363.699 375.932 363.882C375.749 363.882 375.019 364.247 373.74 364.978C372.644 365.526 371.731 365.983 371 366.348C369.539 367.079 367.986 367.992 366.342 369.088C364.698 370.184 363.145 371.28 361.684 372.376C361.319 373.289 360.588 374.203 359.492 375.116L358.122 375.664C357.757 376.029 357.117 376.669 356.204 377.582C355.473 378.495 354.651 379.135 353.738 379.5C353.555 379.865 353.19 380.322 352.642 380.87C352.094 381.418 351.637 381.875 351.272 382.24C350.724 382.971 350.176 383.793 349.628 384.706C349.263 385.619 348.623 386.35 347.71 386.898C346.979 388.177 346.066 389.547 344.97 391.008C344.057 392.287 343.143 393.383 342.23 394.296L342.504 395.666ZM369.082 441.15C369.082 440.602 369.265 440.328 369.63 440.328C369.995 440.328 370.361 440.419 370.726 440.602C371.274 440.785 371.639 440.785 371.822 440.602C372.187 440.602 373.283 440.328 375.11 439.78C376.937 439.049 377.941 438.684 378.124 438.684C378.489 438.501 378.581 438.501 378.398 438.684C378.398 438.867 378.581 438.867 378.946 438.684C379.311 438.684 379.677 438.593 380.042 438.41C380.407 438.045 380.681 437.862 380.864 437.862C381.229 437.862 381.321 437.953 381.138 438.136C381.138 438.319 381.321 438.41 381.686 438.41C382.417 438.227 383.787 437.679 385.796 436.766C387.805 435.67 388.993 435.031 389.358 434.848C389.358 434.117 389.449 433.661 389.632 433.478C390.363 433.478 391.185 433.478 392.098 433.478C393.011 433.295 393.559 433.204 393.742 433.204C394.107 433.204 394.29 433.204 394.29 433.204C394.473 433.021 394.655 432.93 394.838 432.93C395.203 432.93 395.66 432.747 396.208 432.382C396.756 431.834 397.213 431.469 397.578 431.286C397.761 430.921 397.761 430.647 397.578 430.464C397.578 430.099 397.578 429.825 397.578 429.642C397.943 429.277 398.309 429.003 398.674 428.82C399.222 428.455 399.587 428.272 399.77 428.272C400.135 428.272 400.318 428.363 400.318 428.546C400.318 428.729 400.501 428.82 400.866 428.82C401.597 428.82 402.053 428.729 402.236 428.546C402.601 428.181 402.967 427.907 403.332 427.724C403.697 427.359 404.063 427.176 404.428 427.176C404.793 426.993 404.976 426.993 404.976 427.176C405.159 427.359 405.341 427.359 405.524 427.176C405.889 427.176 406.437 426.811 407.168 426.08C408.081 425.349 408.812 424.801 409.36 424.436L413.196 420.052C413.927 420.052 414.749 420.143 415.662 420.326C416.758 420.509 417.58 420.417 418.128 420.052V419.23C418.128 419.047 418.128 418.956 418.128 418.956C418.311 418.956 418.402 418.865 418.402 418.682C418.767 417.403 419.133 416.673 419.498 416.49L421.69 415.394C421.873 415.577 421.964 415.759 421.964 415.942C422.329 415.029 423.243 414.115 424.704 413.202C426.165 412.106 427.261 411.375 427.992 411.01C427.809 410.645 427.718 410.279 427.718 409.914C427.901 409.549 428.357 409.366 429.088 409.366C429.088 409.183 428.997 409.092 428.814 409.092C428.814 408.909 428.814 408.727 428.814 408.544C428.814 407.083 429.545 405.987 431.006 405.256V404.434H431.28C432.193 404.434 432.833 403.977 433.198 403.064C433.746 401.968 434.203 401.055 434.568 400.324C434.933 400.324 435.207 400.233 435.39 400.05C435.755 399.867 436.029 399.776 436.212 399.776C436.212 399.411 436.212 399.137 436.212 398.954C436.395 398.771 436.486 398.589 436.486 398.406C436.851 398.223 437.217 397.949 437.582 397.584C437.947 397.036 438.313 396.671 438.678 396.488C438.313 395.757 438.13 395.301 438.13 395.118V392.652C438.313 392.104 438.587 391.556 438.952 391.008C439.317 390.46 439.591 390.095 439.774 389.912C439.591 389.729 439.5 389.547 439.5 389.364C439.5 389.181 439.5 389.09 439.5 389.09C438.769 389.821 438.221 390.277 437.856 390.46C437.673 390.095 437.673 389.821 437.856 389.638C438.039 389.273 438.039 389.09 437.856 389.09C437.673 389.09 437.491 389.09 437.308 389.09C437.308 388.907 437.308 388.816 437.308 388.816L437.856 387.994C438.404 388.542 438.861 388.816 439.226 388.816C439.409 388.268 439.591 387.72 439.774 387.172C439.957 386.441 440.048 385.893 440.048 385.528C440.231 385.528 440.322 385.528 440.322 385.528C440.505 385.345 440.596 385.254 440.596 385.254C440.413 385.071 440.231 384.797 440.048 384.432C440.048 383.884 439.957 383.519 439.774 383.336V384.158C439.043 383.062 438.769 382.24 438.952 381.692C438.769 381.509 438.495 381.235 438.13 380.87C437.765 380.505 437.491 380.322 437.308 380.322C436.943 380.322 436.851 380.413 437.034 380.596C437.217 380.596 437.125 380.596 436.76 380.596C436.212 380.596 435.755 380.413 435.39 380.048C435.207 379.865 435.025 379.865 434.842 380.048C433.746 380.779 432.65 381.418 431.554 381.966C430.458 382.331 429.453 382.879 428.54 383.61C427.809 383.975 426.896 384.615 425.8 385.528C424.887 386.441 423.973 387.081 423.06 387.446C422.512 387.629 421.873 387.903 421.142 388.268C420.411 388.633 419.863 388.999 419.498 389.364L417.58 391.282C416.301 392.013 414.931 392.743 413.47 393.474C412.009 394.022 410.73 394.753 409.634 395.666C409.269 396.031 408.538 396.671 407.442 397.584C406.346 398.315 405.524 398.68 404.976 398.68L404.154 399.776C403.058 400.141 402.236 400.598 401.688 401.146C401.505 401.329 401.231 401.603 400.866 401.968C400.683 402.151 400.501 402.242 400.318 402.242C399.953 402.607 399.496 402.79 398.948 402.79C398.583 402.79 398.217 402.973 397.852 403.338C396.208 404.069 394.473 405.165 392.646 406.626C390.819 407.905 388.079 409.549 384.426 411.558C383.513 412.106 382.873 412.745 382.508 413.476C382.325 413.476 382.234 413.476 382.234 413.476C382.234 413.293 382.234 413.202 382.234 413.202C381.869 413.933 381.503 414.298 381.138 414.298L375.384 417.86C375.019 417.86 374.927 417.86 375.11 417.86C375.293 417.677 375.201 417.586 374.836 417.586C374.471 417.586 374.197 417.86 374.014 418.408C374.014 418.773 373.831 419.047 373.466 419.23C372.005 419.961 369.995 421.148 367.438 422.792C365.063 424.253 363.145 425.623 361.684 426.902C361.136 426.902 360.771 426.993 360.588 427.176C358.944 428.82 357.391 430.099 355.93 431.012C355.565 431.195 355.017 431.469 354.286 431.834C353.738 432.017 353.19 432.291 352.642 432.656C352.642 433.021 352.003 433.569 350.724 434.3C349.628 435.031 348.897 435.487 348.532 435.67C348.349 435.853 347.984 436.035 347.436 436.218C347.071 436.401 346.705 436.583 346.34 436.766C346.888 437.679 347.801 438.319 349.08 438.684C350.541 439.049 351.729 439.415 352.642 439.78C353.373 439.963 354.834 440.237 357.026 440.602C359.218 440.785 360.771 440.876 361.684 440.876C362.049 440.876 362.415 440.785 362.78 440.602C363.328 440.237 363.693 440.054 363.876 440.054C364.241 440.054 364.972 440.145 366.068 440.328C367.164 440.511 367.986 440.693 368.534 440.876C368.717 440.876 368.808 440.967 368.808 441.15C368.991 441.15 369.082 441.15 369.082 441.15ZM529.774 526.364C528.313 526.364 526.852 526.181 525.39 525.816C523.929 525.633 522.468 525.542 521.006 525.542C520.641 525.542 519.91 525.177 518.814 524.446C517.901 523.715 517.262 523.35 516.896 523.35C513.791 523.35 510.686 523.076 507.58 522.528C507.398 522.528 507.215 522.254 507.032 521.706C506.85 521.341 506.576 521.158 506.21 521.158C506.028 521.158 505.936 521.158 505.936 521.158C505.936 521.341 505.845 521.432 505.662 521.432C505.48 521.432 504.932 521.067 504.018 520.336C503.288 519.788 502.74 519.423 502.374 519.24L502.1 518.692C501.187 518.327 500.639 517.87 500.456 517.322C500.274 516.957 500 516.774 499.634 516.774C499.452 516.774 499.36 516.774 499.36 516.774C499.36 516.957 499.178 517.048 498.812 517.048C498.447 517.048 498.264 516.774 498.264 516.226C497.534 515.861 496.346 515.13 494.702 514.034C493.058 513.121 492.054 512.207 491.688 511.294C490.775 511.111 490.227 510.746 490.044 510.198C489.862 509.833 489.496 509.285 488.948 508.554C488.766 508.189 488.583 508.006 488.4 508.006C488.218 508.006 488.035 507.915 487.852 507.732C487.304 507.001 486.756 506.271 486.208 505.54C485.66 504.992 485.021 504.353 484.29 503.622C484.29 503.257 484.108 502.891 483.742 502.526L482.646 501.978C482.646 501.613 482.555 501.156 482.372 500.608C482.19 500.06 481.916 499.786 481.55 499.786C481.368 498.507 481.002 497.503 480.454 496.772C479.906 496.224 479.45 495.402 479.084 494.306C478.902 493.941 478.81 493.301 478.81 492.388C478.993 491.657 478.81 491.292 478.262 491.292V490.744C478.262 490.013 477.897 488.278 477.166 485.538C476.253 482.981 475.705 480.789 475.522 478.962L474.974 478.414C474.244 476.77 473.878 474.487 473.878 471.564C473.878 470.651 473.878 469.829 473.878 469.098C473.878 468.367 473.97 467.637 474.152 466.906C474.152 465.993 473.604 464.531 472.508 462.522C471.412 460.695 470.682 459.417 470.316 458.686C470.134 456.677 469.677 454.85 468.946 453.206C468.216 451.562 467.942 449.735 468.124 447.726C468.124 447.178 468.216 446.721 468.398 446.356C468.581 445.808 468.672 445.26 468.672 444.712C469.038 445.26 469.586 447.087 470.316 450.192C471.047 453.48 471.96 456.129 473.056 458.138V459.508H473.878C474.244 458.96 474.7 457.864 475.248 456.22C475.796 454.759 476.07 453.754 476.07 453.206C476.07 452.841 475.979 452.384 475.796 451.836C475.614 451.471 475.522 451.014 475.522 450.466C475.522 450.101 475.614 449.735 475.796 449.37C475.979 449.187 476.162 449.005 476.344 448.822C476.344 448.457 476.344 448 476.344 447.452C476.344 446.904 476.436 446.356 476.618 445.808C476.618 444.895 476.71 444.255 476.892 443.89C477.075 443.342 477.349 442.885 477.714 442.52C478.262 441.972 478.628 441.515 478.81 441.15C479.176 440.237 479.541 439.323 479.906 438.41C480.272 437.497 480.546 436.675 480.728 435.944C481.094 435.396 481.459 434.939 481.824 434.574C482.372 434.209 482.738 433.661 482.92 432.93C483.286 432.017 483.742 431.195 484.29 430.464C485.021 429.551 485.66 428.637 486.208 427.724C486.574 427.359 486.756 426.902 486.756 426.354C486.939 425.806 487.122 425.441 487.304 425.258C487.487 424.893 487.761 424.71 488.126 424.71C488.492 424.527 488.766 424.345 488.948 424.162C489.314 423.797 489.679 423.34 490.044 422.792C490.41 422.244 490.775 421.787 491.14 421.422H491.414C491.962 421.422 492.51 421.057 493.058 420.326C493.606 419.595 494.154 419.139 494.702 418.956C495.433 418.408 496.072 418.043 496.62 417.86C497.351 417.677 498.082 417.495 498.812 417.312L499.36 417.586C499.36 417.951 499.269 418.317 499.086 418.682C498.904 419.047 498.812 419.413 498.812 419.778C497.534 419.778 496.712 420.143 496.346 420.874C495.981 421.605 495.616 421.97 495.25 421.97C495.068 421.97 494.976 421.97 494.976 421.97C495.159 421.787 495.068 421.696 494.702 421.696C494.52 421.696 494.246 422.061 493.88 422.792C493.515 423.34 493.241 423.797 493.058 424.162C492.876 424.345 492.693 424.436 492.51 424.436C492.328 424.436 492.054 424.619 491.688 424.984V425.258C491.688 425.441 491.688 425.715 491.688 426.08C491.871 426.263 491.962 426.537 491.962 426.902L491.688 429.094C490.592 430.19 489.588 431.377 488.674 432.656C487.761 433.935 486.848 435.213 485.934 436.492C485.569 437.223 485.386 437.953 485.386 438.684C484.838 438.867 484.564 439.232 484.564 439.78C484.564 440.145 484.473 440.511 484.29 440.876C484.29 441.241 484.108 441.607 483.742 441.972C483.56 442.337 483.377 442.703 483.194 443.068C483.012 443.616 482.829 444.255 482.646 444.986C482.646 445.717 482.464 446.356 482.098 446.904L481.276 447.726C481.094 447.909 480.82 449.187 480.454 451.562C480.089 453.937 479.906 455.307 479.906 455.672C480.089 455.855 480.363 455.946 480.728 455.946V458.686L480.454 458.96V461.152C480.272 461.517 480.18 462.065 480.18 462.796C479.815 462.796 479.632 463.07 479.632 463.618C479.632 463.983 479.724 464.44 479.906 464.988C480.089 465.536 480.18 465.993 480.18 466.358C479.998 466.541 479.906 466.723 479.906 466.906C479.906 467.089 479.815 467.363 479.632 467.728C479.632 467.911 479.724 468.093 479.906 468.276C480.089 468.459 480.272 468.733 480.454 469.098V470.742C480.82 471.473 481.276 472.203 481.824 472.934C482.372 473.665 482.92 474.395 483.468 475.126C483.834 475.491 484.29 475.765 484.838 475.948C485.386 476.313 485.843 476.679 486.208 477.044C490.41 481.611 494.063 484.625 497.168 486.086C500.274 487.547 504.384 489.009 509.498 490.47C511.508 491.018 513.426 491.566 515.252 492.114C517.079 492.845 518.997 493.21 521.006 493.21C521.189 493.21 521.28 493.301 521.28 493.484C521.28 493.667 521.372 493.758 521.554 493.758C522.468 493.758 523.381 493.849 524.294 494.032C525.208 494.215 526.121 494.397 527.034 494.58C527.4 494.58 527.582 494.397 527.582 494.032C527.765 493.849 527.948 493.758 528.13 493.758C528.496 493.758 528.861 493.849 529.226 494.032C529.592 494.215 529.957 494.306 530.322 494.306C531.053 494.306 531.692 494.306 532.24 494.306C532.971 494.489 533.702 494.58 534.432 494.58C536.807 494.58 539.09 494.306 541.282 493.758C543.109 493.393 544.936 492.936 546.762 492.388C548.589 492.023 550.416 491.749 552.242 491.566C555.348 491.201 558.544 490.287 561.832 488.826C565.12 487.547 568.317 486.269 571.422 484.99L573.066 483.894C573.98 483.894 575.715 483.255 578.272 481.976C581.012 480.697 583.752 479.236 586.492 477.592C589.232 476.131 591.059 475.035 591.972 474.304L593.89 471.564H594.164C594.712 471.564 595.352 471.29 596.082 470.742C596.813 470.377 597.27 469.829 597.452 469.098C598.548 468.185 599.005 467.545 598.822 467.18C598.822 466.815 599.005 466.267 599.37 465.536C599.736 465.171 600.192 464.623 600.74 463.892C601.471 463.161 601.745 462.431 601.562 461.7C601.928 461.517 602.293 461.243 602.658 460.878C603.024 460.513 603.298 460.239 603.48 460.056L604.85 459.508L605.672 457.864C606.038 457.499 606.403 457.133 606.768 456.768C607.134 456.585 607.499 456.311 607.864 455.946C608.047 454.85 608.504 454.302 609.234 454.302C609.6 453.206 610.148 452.201 610.878 451.288C611.609 450.557 612.248 449.735 612.796 448.822C613.162 448.274 613.436 447.726 613.618 447.178C613.801 446.447 614.075 445.899 614.44 445.534C614.988 444.803 615.536 444.255 616.084 443.89C616.815 443.342 617.363 442.703 617.728 441.972L623.482 431.834L624.578 429.094L626.496 426.628L626.77 426.354C629.876 423.249 632.798 419.687 635.538 415.668C638.278 411.467 640.836 407.357 643.21 403.338C645.585 399.137 647.686 395.757 649.512 393.2C650.06 392.469 650.517 391.282 650.882 389.638C651.248 388.907 651.704 388.359 652.252 387.994C652.8 387.629 653.257 387.081 653.622 386.35C653.805 385.802 653.896 385.254 653.896 384.706C653.896 384.158 653.988 383.701 654.17 383.336C654.353 383.153 654.536 383.153 654.718 383.336C654.901 383.336 655.084 383.245 655.266 383.062C655.997 382.514 656.362 381.966 656.362 381.418C656.362 380.87 656.454 380.231 656.636 379.5C656.819 378.587 657.276 377.856 658.006 377.308C658.737 376.76 659.102 376.121 659.102 375.39L664.308 369.91C665.039 368.997 665.496 367.901 665.678 366.622C665.861 365.343 666.318 364.247 667.048 363.334C668.327 361.507 669.149 360.503 669.514 360.32C669.88 359.955 670.245 359.589 670.61 359.224C671.158 358.676 671.98 357.489 673.076 355.662C673.442 355.297 673.99 354.566 674.72 353.47C675.634 352.191 676.182 351.461 676.364 351.278C676.73 350.913 676.821 350.821 676.638 351.004C676.638 351.187 676.821 351.187 677.186 351.004C677.369 350.821 677.643 350.091 678.008 348.812C678.556 347.351 679.013 345.981 679.378 344.702C679.744 343.241 679.744 342.51 679.378 342.51C678.648 342.693 678.008 342.784 677.46 342.784C677.095 342.784 676.73 342.784 676.364 342.784C675.816 342.784 675.268 342.784 674.72 342.784C674.355 342.601 673.807 342.51 673.076 342.51C672.528 342.51 671.798 342.601 670.884 342.784C670.154 342.784 669.149 342.875 667.87 343.058C667.505 343.058 667.14 343.149 666.774 343.332C666.592 343.515 666.318 343.697 665.952 343.88C665.77 343.88 665.496 343.789 665.13 343.606C664.948 343.423 664.674 343.241 664.308 343.058C663.578 342.875 662.847 342.875 662.116 343.058C661.386 343.241 660.564 343.332 659.65 343.332C659.285 343.332 658.92 343.332 658.554 343.332C658.189 343.149 657.824 342.967 657.458 342.784C656.91 342.967 656.088 343.058 654.992 343.058C653.714 343.058 652.526 342.967 651.43 342.784C650.517 342.419 649.878 342.236 649.512 342.236C649.33 342.419 649.238 342.51 649.238 342.51C649.421 342.51 649.33 342.601 648.964 342.784C648.782 342.784 648.599 342.693 648.416 342.51C648.416 342.327 648.234 342.236 647.868 342.236C645.676 342.236 643.302 341.688 640.744 340.592C640.562 340.592 640.562 340.683 640.744 340.866C640.927 340.866 640.836 340.866 640.47 340.866H639.922C638.826 340.866 638.004 340.592 637.456 340.044C636.726 339.131 635.721 338.674 634.442 338.674C633.346 338.491 632.798 338.035 632.798 337.304C632.798 336.939 632.981 336.756 633.346 336.756C633.712 336.756 634.26 337.03 634.99 337.578C635.721 337.943 636.178 338.126 636.36 338.126C636.726 338.126 636.817 338.035 636.634 337.852C636.634 337.669 636.817 337.487 637.182 337.304C638.096 337.304 639.192 337.578 640.47 338.126C641.932 338.491 643.758 338.583 645.95 338.4C646.316 338.4 646.407 338.583 646.224 338.948C646.224 339.131 646.407 339.131 646.772 338.948C646.955 338.948 647.138 338.948 647.32 338.948C647.503 338.765 647.686 338.674 647.868 338.674C648.051 338.674 648.234 338.674 648.416 338.674C648.599 338.491 648.69 338.4 648.69 338.4V339.222C649.969 339.039 651.156 339.039 652.252 339.222C653.531 339.405 654.81 339.405 656.088 339.222C656.454 339.039 656.819 338.765 657.184 338.4C657.55 338.035 658.006 337.761 658.554 337.578C658.92 337.578 659.102 337.669 659.102 337.852C659.285 338.035 659.468 338.126 659.65 338.126C660.016 338.126 660.198 338.035 660.198 337.852C660.198 337.669 660.29 337.578 660.472 337.578H661.02C661.386 337.578 661.751 337.669 662.116 337.852C662.664 338.035 663.121 338.126 663.486 338.126C663.669 337.943 663.76 337.578 663.76 337.03H664.308C665.222 337.03 665.861 337.304 666.226 337.852C666.774 338.217 667.231 338.309 667.596 338.126C667.962 338.126 668.053 337.943 667.87 337.578C667.87 337.213 669.058 336.939 671.432 336.756L671.98 335.934C672.894 336.665 673.35 336.847 673.35 336.482C673.35 336.117 673.533 335.934 673.898 335.934C674.264 335.751 674.355 335.843 674.172 336.208C674.172 336.573 674.264 336.756 674.446 336.756C674.812 336.573 675.177 336.756 675.542 337.304C675.908 337.669 676.182 337.761 676.364 337.578C676.182 337.03 676.273 336.756 676.638 336.756C677.004 336.756 677.186 336.847 677.186 337.03C677.186 337.213 677.369 337.304 677.734 337.304C678.1 337.121 678.282 336.939 678.282 336.756C678.465 336.573 678.648 336.391 678.83 336.208C679.196 336.208 679.652 336.299 680.2 336.482C680.931 336.665 681.479 336.665 681.844 336.482C682.758 336.482 683.306 336.391 683.488 336.208C683.854 336.025 683.945 335.843 683.762 335.66C683.762 335.477 683.854 335.295 684.036 335.112C684.402 334.929 684.584 335.021 684.584 335.386C684.767 335.569 685.041 335.569 685.406 335.386C685.772 335.386 686.32 335.203 687.05 334.838C688.512 333.377 690.064 332.189 691.708 331.276C693.352 330.18 693.992 328.901 693.626 327.44C693.444 327.075 693.626 326.709 694.174 326.344C694.905 325.796 695.362 325.431 695.544 325.248C695.727 324.883 696.092 324.7 696.64 324.7C697.371 324.517 697.828 324.335 698.01 324.152C698.376 323.787 698.924 323.056 699.654 321.96C700.385 320.864 700.842 320.225 701.024 320.042C701.39 320.042 701.755 319.951 702.12 319.768C702.668 319.403 703.034 319.22 703.216 319.22C703.582 319.037 703.856 318.581 704.038 317.85C704.221 317.119 704.678 316.663 705.408 316.48C706.139 316.297 706.596 316.206 706.778 316.206C706.961 316.023 707.052 315.932 707.052 315.932C707.052 315.932 706.961 315.932 706.778 315.932C706.778 315.749 706.778 315.567 706.778 315.384C706.778 315.019 707.326 314.379 708.422 313.466C708.788 312.553 709.975 312.279 711.984 312.644C712.715 313.009 713.263 313.375 713.628 313.74C713.811 313.923 713.446 314.653 712.532 315.932C711.619 317.211 710.98 317.85 710.614 317.85C710.432 318.033 710.158 318.124 709.792 318.124C709.61 317.941 709.336 317.941 708.97 318.124C708.605 318.307 708.24 318.763 707.874 319.494C707.509 320.042 707.052 320.407 706.504 320.59C706.139 320.773 705.591 320.955 704.86 321.138C704.312 321.321 704.038 321.595 704.038 321.96C704.038 322.143 703.856 322.417 703.49 322.782C703.308 322.965 703.125 322.965 702.942 322.782C702.76 322.599 702.577 322.782 702.394 323.33C702.394 323.878 702.212 324.335 701.846 324.7C701.116 325.248 700.385 326.07 699.654 327.166C698.924 328.262 698.558 329.358 698.558 330.454C698.376 330.637 698.924 331.185 700.202 332.098C701.481 332.829 702.212 333.194 702.394 333.194C702.76 333.194 702.942 333.011 702.942 332.646C703.125 332.281 703.399 332.098 703.764 332.098C704.13 332.098 704.404 332.189 704.586 332.372C704.952 332.372 705.226 332.372 705.408 332.372L718.286 331.276C718.652 331.276 719.017 331.093 719.382 330.728C719.748 330.363 720.113 330.18 720.478 330.18H720.752C721.483 330.18 722.122 330.271 722.67 330.454C723.401 330.637 723.949 330.363 724.314 329.632C725.593 329.449 727.146 328.993 728.972 328.262C730.799 327.531 731.712 327.257 731.712 327.44C732.991 327.44 733.63 328.171 733.63 329.632C733.63 330.911 732.9 332.372 731.438 334.016C730.16 335.66 728.242 336.665 725.684 337.03C724.406 337.213 723.036 337.578 721.574 338.126C720.296 338.674 718.926 339.039 717.464 339.222C716.916 339.222 716.277 339.131 715.546 338.948C714.816 338.765 714.085 338.674 713.354 338.674C713.172 338.674 712.989 338.857 712.806 339.222C712.624 339.587 712.35 339.77 711.984 339.77C711.802 339.77 711.436 339.679 710.888 339.496C710.523 339.313 709.975 339.222 709.244 339.222C708.514 339.222 707.692 339.496 706.778 340.044L706.23 339.496C706.048 339.861 705.774 340.135 705.408 340.318C703.399 340.501 701.207 340.592 698.832 340.592C696.458 340.592 694.174 340.775 691.982 341.14C691.617 341.14 691.343 340.775 691.16 340.044C690.978 339.131 690.795 338.857 690.612 339.222C690.064 338.491 689.151 339.039 687.872 340.866C686.594 342.51 685.406 344.337 684.31 346.346C683.214 348.173 682.575 349.177 682.392 349.36C681.844 349.725 681.479 350.273 681.296 351.004C681.296 351.735 681.205 352.283 681.022 352.648C680.84 353.196 680.292 353.835 679.378 354.566C678.648 355.297 678.1 355.936 677.734 356.484C677.552 357.032 677.186 357.58 676.638 358.128C676.09 358.493 675.634 358.95 675.268 359.498C675.086 359.863 674.994 360.411 674.994 361.142C674.994 361.69 674.72 362.147 674.172 362.512C674.172 362.512 673.99 362.512 673.624 362.512C673.259 362.512 672.802 363.151 672.254 364.43C671.889 365.709 671.524 366.531 671.158 366.896L670.884 367.17C670.154 367.17 669.606 367.535 669.24 368.266C669.058 368.997 668.784 369.545 668.418 369.91C668.236 370.093 668.144 370.093 668.144 369.91C668.144 369.727 667.962 369.727 667.596 369.91C667.414 370.093 667.14 370.823 666.774 372.102C666.409 373.381 666.044 374.294 665.678 374.842C665.496 375.025 665.222 375.207 664.856 375.39C664.491 375.573 664.217 375.847 664.034 376.212C662.938 377.856 661.934 379.591 661.02 381.418C660.107 383.245 659.194 384.98 658.28 386.624C657.915 387.537 657.276 388.451 656.362 389.364C655.632 390.095 654.901 390.917 654.17 391.83L653.622 394.57C653.257 395.301 652.709 396.123 651.978 397.036C651.248 397.767 650.791 398.589 650.608 399.502C650.608 400.233 649.786 401.785 648.142 404.16C646.681 406.535 645.128 408.909 643.484 411.284C641.84 413.476 640.836 415.029 640.47 415.942C640.288 416.125 639.831 416.581 639.1 417.312C638.552 417.86 637.274 419.687 635.264 422.792L622.386 441.424C622.204 442.155 621.93 442.885 621.564 443.616C621.382 444.347 621.108 445.077 620.742 445.808C620.012 447.452 619.19 449.005 618.276 450.466C617.363 451.927 616.45 453.297 615.536 454.576V455.672C616.084 455.672 616.815 455.398 617.728 454.85C618.642 454.485 619.19 453.937 619.372 453.206C622.112 451.379 624.67 449.096 627.044 446.356C629.419 443.616 631.885 441.241 634.442 439.232C635.356 438.684 635.812 437.953 635.812 437.04C637.639 436.127 638.552 435.853 638.552 436.218C638.735 436.401 638.552 436.949 638.004 437.862C637.274 438.593 636.634 439.415 636.086 440.328C635.538 441.059 634.899 441.789 634.168 442.52C633.986 442.703 633.438 443.159 632.524 443.89C631.794 444.621 631.428 445.169 631.428 445.534C631.063 445.899 630.15 446.813 628.688 448.274C627.41 449.735 626.131 451.105 624.852 452.384C623.574 453.663 622.843 454.302 622.66 454.302C622.478 454.302 622.386 454.211 622.386 454.028C622.386 453.845 622.295 453.754 622.112 453.754C621.93 453.754 621.199 454.393 619.92 455.672C618.824 457.133 618.094 458.047 617.728 458.412C617.363 458.595 616.998 458.869 616.632 459.234C616.267 459.599 615.902 459.782 615.536 459.782C615.171 460.33 614.714 460.695 614.166 460.878C613.801 461.243 613.436 461.7 613.07 462.248H612.248C610.97 463.527 609.234 465.171 607.042 467.18C605.033 469.372 603.846 471.473 603.48 473.482C602.567 473.847 601.562 474.852 600.466 476.496C599.37 478.323 598.183 479.693 596.904 480.606L594.986 482.798C594.804 482.981 594.53 483.437 594.164 484.168C593.982 484.899 593.708 485.447 593.342 485.812C592.977 486.36 592.52 486.817 591.972 487.182C591.424 487.73 590.876 488.278 590.328 488.826C590.328 489.191 590.146 489.739 589.78 490.47C589.598 490.653 589.324 490.835 588.958 491.018C588.593 491.201 588.228 491.383 587.862 491.566C587.132 492.297 586.218 493.575 585.122 495.402C584.209 497.229 583.022 498.599 581.56 499.512C581.378 499.695 581.104 499.786 580.738 499.786C579.825 499.786 579.094 500.243 578.546 501.156C578.181 502.252 577.724 503.165 577.176 503.896C575.898 505.357 573.888 506.91 571.148 508.554C568.591 510.381 566.582 512.025 565.12 513.486C564.39 513.486 563.476 513.76 562.38 514.308C561.467 515.039 561.01 515.404 561.01 515.404H559.366C559.184 515.404 558.636 515.769 557.722 516.5C556.809 517.231 556.17 517.687 555.804 517.87C555.439 518.053 554.982 518.144 554.434 518.144C554.069 518.327 553.704 518.692 553.338 519.24C552.608 519.423 551.877 519.514 551.146 519.514C550.598 519.514 550.05 519.697 549.502 520.062C549.32 520.245 549.046 520.427 548.68 520.61C548.498 520.975 548.224 521.341 547.858 521.706C547.493 521.889 546.58 522.254 545.118 522.802C543.657 523.533 542.744 523.898 542.378 523.898C542.196 523.898 542.013 523.807 541.83 523.624C541.83 523.624 541.739 523.624 541.556 523.624C541.374 523.624 541.1 523.807 540.734 524.172C540.369 524.72 540.004 524.994 539.638 524.994C539.273 524.994 538.816 524.811 538.268 524.446C537.72 524.263 537.172 524.172 536.624 524.172C536.442 524.172 536.076 524.446 535.528 524.994C534.98 525.542 534.524 525.816 534.158 525.816C533.976 525.816 533.702 525.725 533.336 525.542C533.154 525.542 532.971 525.542 532.788 525.542H532.514C531.966 525.542 531.418 525.633 530.87 525.816C530.505 526.181 530.14 526.364 529.774 526.364ZM608.412 447.452C608.23 447.087 608.138 446.721 608.138 446.356C608.321 445.808 608.412 445.443 608.412 445.26C608.412 444.529 608.23 443.799 607.864 443.068C607.864 442.703 607.956 442.337 608.138 441.972C608.321 441.424 608.321 440.967 608.138 440.602C608.138 440.419 608.047 440.237 607.864 440.054C607.682 439.871 607.682 439.689 607.864 439.506C607.864 439.506 608.047 439.506 608.412 439.506C608.595 439.323 608.686 439.049 608.686 438.684C608.504 438.136 608.504 437.679 608.686 437.314C608.869 436.766 608.96 436.309 608.96 435.944C609.143 434.848 609.234 433.661 609.234 432.382V432.108C609.234 431.56 609.052 431.012 608.686 430.464C608.504 429.733 608.412 429.094 608.412 428.546C608.412 427.633 608.504 426.719 608.686 425.806C609.052 424.71 609.326 423.614 609.508 422.518C609.691 421.787 609.691 421.239 609.508 420.874C609.508 420.509 609.6 420.235 609.782 420.052V419.778C609.782 419.413 609.691 419.047 609.508 418.682C609.326 418.317 609.234 417.951 609.234 417.586C609.234 416.855 609.326 416.399 609.508 416.216C609.874 415.851 609.874 415.211 609.508 414.298C609.143 413.567 609.143 412.928 609.508 412.38C609.508 412.197 609.417 412.015 609.234 411.832C609.234 411.649 609.234 411.375 609.234 411.01C609.234 410.462 609.326 410.005 609.508 409.64C609.874 409.275 610.056 408.818 610.056 408.27C610.056 407.905 609.965 407.539 609.782 407.174C609.6 406.809 609.417 406.535 609.234 406.352C609.234 405.987 609.234 405.621 609.234 405.256C609.417 404.891 609.6 404.525 609.782 404.16C609.782 403.795 609.6 403.338 609.234 402.79C609.052 402.242 608.96 401.785 608.96 401.42C608.778 396.123 608.504 390.917 608.138 385.802C607.956 380.505 607.316 375.207 606.22 369.91L604.85 367.17C603.024 365.891 602.384 365.161 602.932 364.978C603.48 364.613 603.48 363.699 602.932 362.238C602.567 361.142 602.384 360.32 602.384 359.772C602.384 359.224 602.293 358.585 602.11 357.854C601.928 357.306 601.654 356.758 601.288 356.21C600.923 355.479 600.832 354.931 601.014 354.566C601.197 354.018 600.74 352.739 599.644 350.73C598.548 348.538 598.092 347.351 598.274 347.168C598.64 346.803 598.731 346.529 598.548 346.346L598 345.798C598 345.615 598 345.433 598 345.25C598.183 345.067 598.183 344.885 598 344.702C597.818 344.337 597.726 344.063 597.726 343.88C597.909 343.697 598 343.515 598 343.332C597.818 342.784 597.452 342.327 596.904 341.962C596.356 341.597 595.9 341.323 595.534 341.14L594.438 338.948C594.256 338.583 594.073 338.309 593.89 338.126C593.89 337.761 593.799 337.395 593.616 337.03C593.434 336.665 592.886 336.117 591.972 335.386C591.059 334.473 590.42 333.742 590.054 333.194C589.689 332.646 589.05 331.824 588.136 330.728C587.406 329.449 587.04 328.719 587.04 328.536C587.04 328.353 586.858 328.262 586.492 328.262C586.31 328.079 586.127 327.897 585.944 327.714C584.118 326.253 582.839 325.248 582.108 324.7C581.378 323.969 580.008 322.965 577.998 321.686L573.614 320.042C573.066 319.677 572.336 319.494 571.422 319.494C570.692 319.311 570.052 319.129 569.504 318.946C568.774 318.581 567.678 318.398 566.216 318.398C564.938 318.215 563.659 318.124 562.38 318.124C560.554 318.124 559.458 318.215 559.092 318.398L557.174 318.124C553.704 317.576 549.959 318.033 545.94 319.494C541.922 320.773 537.903 322.417 533.884 324.426C528.952 326.801 524.386 329.449 520.184 332.372C515.983 335.112 512.786 337.669 510.594 340.044C510.412 340.227 510.229 340.592 510.046 341.14C510.046 341.688 509.864 341.962 509.498 341.962C508.22 342.693 507.398 343.058 507.032 343.058C506.667 342.875 506.302 343.423 505.936 344.702C505.754 345.798 505.297 346.346 504.566 346.346C503.836 346.163 503.288 346.62 502.922 347.716C502.922 348.081 503.014 348.264 503.196 348.264C501.37 348.812 500.274 349.543 499.908 350.456C499.908 350.639 500.091 350.821 500.456 351.004C500.822 351.187 500.822 351.278 500.456 351.278C499.908 351.461 499.178 352.009 498.264 352.922C497.351 353.835 497.168 354.657 497.716 355.388C497.899 355.571 497.716 355.845 497.168 356.21C496.986 356.393 496.894 356.393 496.894 356.21C496.894 356.027 496.803 356.027 496.62 356.21C496.438 356.393 496.255 356.575 496.072 356.758C496.072 356.941 495.981 357.123 495.798 357.306H495.524C494.794 357.306 494.337 357.763 494.154 358.676C494.154 359.407 494.246 360.137 494.428 360.868L493.332 360.594C493.332 360.959 493.332 361.142 493.332 361.142C492.967 361.325 492.967 361.69 493.332 362.238C493.698 362.603 493.972 362.877 494.154 363.06C495.068 363.791 495.798 364.247 496.346 364.43C497.077 364.613 497.442 364.887 497.442 365.252C497.26 365.983 496.803 366.622 496.072 367.17C495.524 367.535 495.068 368.083 494.702 368.814C492.51 373.381 491.414 377.947 491.414 382.514C491.414 383.245 491.414 383.975 491.414 384.706C491.414 385.437 491.506 386.259 491.688 387.172C491.688 387.355 491.871 387.537 492.236 387.72C492.784 387.903 493.15 388.085 493.332 388.268C493.88 388.268 494.154 388.268 494.154 388.268C495.25 388.451 495.89 388.451 496.072 388.268C496.438 388.085 496.712 387.903 496.894 387.72C497.077 387.537 497.26 387.537 497.442 387.72C497.625 387.72 497.808 387.72 497.99 387.72C498.538 387.537 499.086 387.263 499.634 386.898C500.365 386.533 500.913 386.35 501.278 386.35C501.826 386.167 502.283 385.985 502.648 385.802C503.196 385.437 503.744 385.163 504.292 384.98C504.292 384.98 504.566 385.254 505.114 385.802H504.566C504.201 385.985 503.836 386.35 503.47 386.898C503.288 387.263 503.014 387.629 502.648 387.994C502.283 387.994 502.009 388.085 501.826 388.268C502.009 388.268 501.918 388.451 501.552 388.816C500.822 388.816 500.456 388.999 500.456 389.364C500.456 389.547 500.091 389.821 499.36 390.186C499.178 390.369 498.904 390.46 498.538 390.46C498.356 390.277 498.173 390.277 497.99 390.46C497.26 390.825 496.712 391.191 496.346 391.556C495.981 391.739 495.159 392.013 493.88 392.378C492.967 392.561 491.506 392.652 489.496 392.652H488.948C488.035 392.652 487.03 392.287 485.934 391.556C485.752 391.373 485.478 391.191 485.112 391.008C484.747 390.825 484.382 390.643 484.016 390.46C483.834 390.277 483.56 390.186 483.194 390.186C483.012 390.186 482.829 390.095 482.646 389.912C482.464 389.729 482.281 389.547 482.098 389.364C482.098 388.999 481.916 388.725 481.55 388.542V388.268C480.454 386.989 479.815 385.802 479.632 384.706C479.45 384.158 479.45 383.61 479.632 383.062C479.815 382.514 479.815 381.875 479.632 381.144C479.45 380.779 479.267 380.139 479.084 379.226C478.902 378.13 478.902 377.491 479.084 377.308L479.906 376.76L479.632 374.842C479.632 374.477 479.724 374.203 479.906 374.02C480.089 373.837 480.18 373.655 480.18 373.472C480.363 372.924 480.454 372.011 480.454 370.732C480.637 370.549 480.637 370.275 480.454 369.91C480.272 369.545 480.272 369.271 480.454 369.088C480.637 369.088 480.728 369.088 480.728 369.088C480.911 368.905 481.094 368.814 481.276 368.814L485.66 358.128H485.934C486.482 358.128 486.848 357.763 487.03 357.032C487.213 356.119 487.396 355.571 487.578 355.388C487.944 355.023 488.126 354.931 488.126 355.114C488.492 354.931 488.674 354.749 488.674 354.566C488.674 354.201 488.766 353.927 488.948 353.744C489.496 353.013 490.41 351.917 491.688 350.456C493.15 348.995 494.063 347.899 494.428 347.168C494.611 346.985 494.885 346.711 495.25 346.346C495.798 345.981 496.072 345.615 496.072 345.25C496.072 344.885 496.255 344.702 496.62 344.702C496.986 344.702 497.26 344.611 497.442 344.428C497.442 344.063 497.442 343.88 497.442 343.88L497.99 343.606C498.356 343.606 498.538 343.423 498.538 343.058C498.721 342.693 498.904 342.419 499.086 342.236C499.269 342.053 499.36 342.053 499.36 342.236C499.543 342.236 499.726 342.145 499.908 341.962C499.908 341.962 499.817 341.962 499.634 341.962C499.634 341.779 499.726 341.597 499.908 341.414C500.274 341.049 500.639 340.775 501.004 340.592C501.552 340.227 502.009 339.861 502.374 339.496C503.105 338.948 503.653 338.4 504.018 337.852C504.566 337.121 505.206 336.573 505.936 336.208L508.402 334.564C508.402 334.199 508.585 334.016 508.95 334.016C509.316 334.016 509.59 333.925 509.772 333.742C509.772 333.011 510.138 332.555 510.868 332.372C511.782 332.189 512.421 331.824 512.786 331.276C513.152 330.545 513.7 330.089 514.43 329.906C515.344 329.541 516.074 329.175 516.622 328.81C516.44 328.81 516.531 328.627 516.896 328.262H517.718C517.718 328.262 517.627 328.262 517.444 328.262C517.444 328.079 517.444 327.897 517.444 327.714C517.992 327.349 518.997 326.983 520.458 326.618C520.824 326.435 521.006 326.253 521.006 326.07C521.189 325.705 521.372 325.431 521.554 325.248L523.472 324.7C524.02 324.517 524.386 324.243 524.568 323.878C524.934 323.513 525.39 323.239 525.938 323.056C526.121 322.873 526.395 322.782 526.76 322.782C527.126 322.782 527.4 322.691 527.582 322.508C527.765 322.325 528.039 321.96 528.404 321.412C528.77 320.864 529.226 320.59 529.774 320.59H530.322C531.236 320.59 531.692 320.407 531.692 320.042C531.875 319.677 532.606 319.585 533.884 319.768C534.25 319.768 534.432 319.677 534.432 319.494C534.432 319.129 534.524 318.855 534.706 318.672L535.802 318.946L536.076 318.398H536.35C537.812 318.398 538.725 318.124 539.09 317.576C539.638 317.028 540.46 316.754 541.556 316.754C542.47 316.389 543.109 316.389 543.474 316.754C543.84 316.937 544.388 316.845 545.118 316.48C545.849 316.115 546.58 316.023 547.31 316.206C548.041 316.389 548.589 316.389 548.954 316.206C549.137 316.206 549.228 316.115 549.228 315.932C549.228 315.749 549.32 315.567 549.502 315.384C549.685 315.201 550.416 315.11 551.694 315.11C552.973 314.927 553.795 314.836 554.16 314.836L554.708 315.384C555.439 315.201 555.713 315.11 555.53 315.11C555.348 314.927 555.348 314.745 555.53 314.562C555.896 314.562 556.261 314.562 556.626 314.562C556.992 314.379 557.357 314.288 557.722 314.288C558.27 314.471 558.636 314.653 558.818 314.836C559.001 315.019 559.458 315.019 560.188 314.836L560.736 315.11C561.102 314.927 561.65 314.836 562.38 314.836C562.746 314.836 563.111 314.927 563.476 315.11C563.842 315.293 564.207 315.475 564.572 315.658H565.394L566.49 315.932C567.038 316.115 567.678 316.023 568.408 315.658C568.591 315.475 568.865 315.384 569.23 315.384C569.596 315.384 570.052 315.475 570.6 315.658C571.148 315.841 571.605 315.932 571.97 315.932C572.153 315.932 572.336 316.023 572.518 316.206C572.701 316.389 572.884 316.389 573.066 316.206H573.614C574.162 316.206 574.984 316.297 576.08 316.48C577.359 316.663 578.455 316.754 579.368 316.754H579.642C580.008 316.754 580.373 316.937 580.738 317.302C581.286 317.485 581.926 317.576 582.656 317.576H582.93C583.478 317.576 584.209 317.85 585.122 318.398C586.218 318.763 586.858 319.129 587.04 319.494L589.232 321.138L589.506 321.686C589.689 321.686 589.872 321.686 590.054 321.686C590.237 321.503 590.42 321.503 590.602 321.686C591.698 322.051 592.794 322.599 593.89 323.33C595.169 323.878 596.174 324.517 596.904 325.248C598.548 327.075 600.01 328.536 601.288 329.632C602.567 330.545 603.846 331.915 605.124 333.742L606.494 336.756C606.677 336.939 606.86 337.121 607.042 337.304C607.225 337.304 607.408 337.395 607.59 337.578C607.59 338.126 607.682 338.491 607.864 338.674L610.604 342.51C611.518 343.789 611.7 344.428 611.152 344.428C610.787 344.428 610.696 344.976 610.878 346.072C610.878 346.437 611.244 347.351 611.974 348.812C612.888 350.273 613.344 351.187 613.344 351.552C613.527 351.735 613.527 352.009 613.344 352.374C613.162 352.557 613.162 352.831 613.344 353.196C613.344 353.379 613.436 353.561 613.618 353.744C613.801 353.927 613.892 354.109 613.892 354.292L614.44 356.758L615.262 359.498C615.262 360.046 615.262 360.32 615.262 360.32V360.594C615.262 360.959 615.354 361.325 615.536 361.69C615.902 362.055 615.993 362.421 615.81 362.786C615.628 362.969 615.628 363.334 615.81 363.882C616.176 364.247 616.45 364.613 616.632 364.978C616.815 365.161 616.724 365.343 616.358 365.526C616.176 365.709 616.176 365.983 616.358 366.348C616.724 366.713 616.998 368.083 617.18 370.458C617.546 372.65 617.728 373.746 617.728 373.746C618.094 374.659 618.459 375.664 618.824 376.76C619.19 377.673 619.464 378.587 619.646 379.5C619.646 380.231 619.555 380.596 619.372 380.596C619.372 380.596 619.464 380.87 619.646 381.418C619.829 381.783 619.829 382.24 619.646 382.788C619.646 383.153 619.738 383.701 619.92 384.432C620.103 384.98 620.012 385.802 619.646 386.898C619.646 387.263 619.738 387.903 619.92 388.816C620.286 389.547 620.377 390.003 620.194 390.186C619.829 390.734 619.738 391.099 619.92 391.282C620.286 391.465 620.377 391.739 620.194 392.104C620.194 392.652 620.103 393.565 619.92 394.844C619.738 395.94 619.738 396.671 619.92 397.036C620.103 397.219 620.103 397.401 619.92 397.584C619.738 397.584 619.646 397.767 619.646 398.132C619.646 398.132 619.646 398.223 619.646 398.406C619.829 398.406 619.92 398.497 619.92 398.68C619.738 399.045 619.464 399.228 619.098 399.228C618.733 399.228 618.368 399.411 618.002 399.776C617.82 400.324 617.82 400.872 618.002 401.42C618.185 401.785 618.094 402.151 617.728 402.516C617.546 402.699 617.18 402.79 616.632 402.79C616.084 402.79 615.628 402.699 615.262 402.516C615.08 402.333 615.08 402.242 615.262 402.242C615.445 402.059 615.445 401.877 615.262 401.694C615.262 401.511 615.171 401.42 614.988 401.42C614.806 401.42 614.623 401.329 614.44 401.146C613.892 400.781 613.618 400.963 613.618 401.694C613.801 402.425 613.801 402.881 613.618 403.064C613.07 403.064 612.888 403.247 613.07 403.612C613.801 404.708 613.984 405.53 613.618 406.078V406.9C613.253 407.631 613.253 408.544 613.618 409.64C613.801 410.188 613.892 410.919 613.892 411.832C613.892 412.745 613.71 413.567 613.344 414.298C612.979 414.846 613.07 415.577 613.618 416.49C613.801 416.855 613.71 417.221 613.344 417.586C613.162 417.769 613.07 418.043 613.07 418.408C613.07 418.956 613.07 419.321 613.07 419.504C613.253 419.687 613.344 419.961 613.344 420.326L613.618 420.6C613.436 421.513 613.344 422.792 613.344 424.436C613.527 425.897 613.253 427.176 612.522 428.272C612.522 429.003 612.614 429.551 612.796 429.916L612.522 430.19C612.522 430.921 612.34 431.651 611.974 432.382L612.248 432.93C612.066 432.93 611.974 433.113 611.974 433.478C611.974 433.843 612.157 434.3 612.522 434.848C612.888 435.396 612.888 435.853 612.522 436.218C612.34 436.401 612.248 436.766 612.248 437.314C612.248 438.045 612.34 438.867 612.522 439.78C612.888 440.511 612.614 441.059 611.7 441.424L611.152 441.698C610.97 441.698 610.97 442.246 611.152 443.342C611.518 444.438 611.609 444.986 611.426 444.986C609.965 445.351 609.234 446.082 609.234 447.178L608.412 447.452ZM523.472 518.418C525.664 518.418 528.13 517.687 530.87 516.226C533.793 514.947 535.894 514.308 537.172 514.308C537.355 514.308 537.446 514.308 537.446 514.308C537.629 514.491 537.812 514.582 537.994 514.582C538.542 514.582 539.182 514.034 539.912 512.938H541.83C543.474 511.111 544.753 510.381 545.666 510.746C546.58 511.294 547.676 510.929 548.954 509.65C549.685 509.285 550.233 509.102 550.598 509.102C550.964 508.189 551.42 507.641 551.968 507.458C552.699 507.275 553.247 507.093 553.612 506.91C554.16 506.545 554.434 506.088 554.434 505.54C554.617 504.992 555.074 504.718 555.804 504.718C556.17 504.718 556.444 504.809 556.626 504.992C556.809 505.357 556.992 505.54 557.174 505.54C558.27 505.54 559.366 504.809 560.462 503.348C561.741 501.887 562.472 501.156 562.654 501.156C563.02 501.156 563.294 501.156 563.476 501.156C563.842 501.339 564.116 501.43 564.298 501.43L565.394 499.512C565.76 499.147 566.673 498.69 568.134 498.142C569.778 497.777 570.783 497.594 571.148 497.594L571.696 494.854L574.162 492.114C575.258 492.114 576.354 491.657 577.45 490.744C578.546 489.831 579.46 488.826 580.19 487.73C580.738 486.817 581.56 485.995 582.656 485.264C583.752 484.533 584.483 483.62 584.848 482.524C584.666 482.341 584.026 482.25 582.93 482.25C581.104 482.981 579.186 484.077 577.176 485.538C576.994 485.721 576.72 485.995 576.354 486.36C575.989 486.908 575.624 487.273 575.258 487.456C575.076 487.639 574.802 487.639 574.436 487.456C574.254 487.456 573.98 487.456 573.614 487.456C573.249 488.369 572.792 488.826 572.244 488.826C572.062 488.826 571.788 488.735 571.422 488.552C571.24 488.369 570.966 488.278 570.6 488.278L570.326 489.1C569.961 489.1 569.687 489.283 569.504 489.648C569.322 490.013 568.865 490.196 568.134 490.196C567.404 490.196 566.947 490.013 566.764 489.648C566.764 489.465 566.582 489.374 566.216 489.374C565.851 489.374 565.394 489.465 564.846 489.648C564.481 489.831 564.116 489.922 563.75 489.922C562.654 491.383 561.193 492.479 559.366 493.21C557.54 494.123 555.896 494.58 554.434 494.58C554.252 494.58 554.16 494.489 554.16 494.306C554.16 494.306 554.069 494.306 553.886 494.306C553.521 494.306 553.156 494.397 552.79 494.58C552.425 494.763 552.06 494.945 551.694 495.128L551.146 495.95C550.964 495.95 550.69 496.041 550.324 496.224C549.959 496.407 549.594 496.498 549.228 496.498C549.046 496.498 548.954 496.407 548.954 496.224C548.954 496.224 548.863 496.224 548.68 496.224C547.767 496.224 546.762 496.498 545.666 497.046C544.57 497.777 543.566 498.142 542.652 498.142C542.47 498.142 542.378 498.051 542.378 497.868C542.378 497.868 542.196 497.868 541.83 497.868C541.648 497.868 541.282 498.051 540.734 498.416C540.369 498.781 540.004 498.964 539.638 498.964C539.273 498.964 538.908 498.69 538.542 498.142C538.36 497.594 538.086 497.32 537.72 497.32C537.538 497.32 537.264 497.594 536.898 498.142C536.533 498.873 536.168 499.238 535.802 499.238C535.62 499.238 535.346 499.147 534.98 498.964C534.798 498.964 534.524 498.964 534.158 498.964H532.788C532.606 499.512 532.24 499.786 531.692 499.786C531.51 499.786 531.327 499.695 531.144 499.512C531.144 499.329 531.053 499.238 530.87 499.238C530.322 499.238 529.683 499.421 528.952 499.786C528.404 500.334 527.948 500.608 527.582 500.608H526.486C526.121 499.877 525.847 499.512 525.664 499.512C525.482 499.512 525.39 499.603 525.39 499.786C525.39 499.969 525.299 500.06 525.116 500.06C524.568 500.06 523.929 500.06 523.198 500.06C522.65 500.243 522.102 500.334 521.554 500.334C519.728 500.334 517.901 499.786 516.074 498.69C514.43 497.594 512.878 497.046 511.416 497.046C511.051 497.046 510.777 497.137 510.594 497.32C510.594 497.685 510.412 497.868 510.046 497.868C509.864 497.868 509.681 497.777 509.498 497.594C509.316 497.411 509.042 497.32 508.676 497.32C508.494 497.32 508.22 497.503 507.854 497.868L507.032 496.772C506.484 496.589 505.845 496.407 505.114 496.224C504.566 496.224 504.018 496.133 503.47 495.95C503.105 494.854 502.648 494.397 502.1 494.58C501.918 493.667 501.096 492.662 499.634 491.566C498.173 490.653 496.986 490.013 496.072 489.648C495.89 489.465 495.342 489.1 494.428 488.552C493.698 488.004 493.332 487.913 493.332 488.278C493.15 488.278 493.058 488.278 493.058 488.278C493.058 488.461 493.058 488.552 493.058 488.552C492.145 488.369 490.775 487.182 488.948 484.99C487.304 482.981 486.026 481.976 485.112 481.976C484.93 481.428 484.564 480.88 484.016 480.332C483.651 479.784 483.377 479.236 483.194 478.688H482.372C482.372 479.236 482.281 479.693 482.098 480.058C481.916 480.606 481.824 481.063 481.824 481.428C481.642 481.793 481.824 482.707 482.372 484.168C483.103 485.629 483.468 486.817 483.468 487.73C483.834 488.278 484.108 489.009 484.29 489.922C484.656 490.835 485.112 491.383 485.66 491.566C486.026 492.662 486.482 493.758 487.03 494.854C487.578 495.95 488.126 496.955 488.674 497.868V499.786C489.04 500.151 489.405 500.517 489.77 500.882C490.318 501.247 490.592 501.795 490.592 502.526C490.958 503.074 491.323 503.622 491.688 504.17C492.236 504.718 492.602 505.357 492.784 506.088C493.332 506.088 493.698 506.179 493.88 506.362C494.246 507.093 495.159 508.28 496.62 509.924C498.082 511.568 499.178 512.39 499.908 512.39C500.091 512.39 500.182 512.299 500.182 512.116C500.182 512.116 500.274 512.116 500.456 512.116C500.822 512.299 501.552 512.938 502.648 514.034C503.927 515.313 504.749 515.952 505.114 515.952C505.297 515.952 505.388 515.861 505.388 515.678C505.571 515.678 505.754 515.678 505.936 515.678C508.311 515.678 510.594 515.861 512.786 516.226C514.978 516.774 517.262 517.048 519.636 517.048C519.819 517.048 520.276 517.231 521.006 517.596C521.737 518.144 522.559 518.418 523.472 518.418Z" fill="white"/>
</svg>
